<?xml version="1.0" encoding="UTF-8" standalone="no"?>
<svg
   xmlns:ns1="http://www.iki.fi/pav/software/textext/"
   xmlns:dc="http://purl.org/dc/elements/1.1/"
   xmlns:cc="http://creativecommons.org/ns#"
   xmlns:rdf="http://www.w3.org/1999/02/22-rdf-syntax-ns#"
   xmlns:svg="http://www.w3.org/2000/svg"
   xmlns="http://www.w3.org/2000/svg"
   xmlns:sodipodi="http://sodipodi.sourceforge.net/DTD/sodipodi-0.dtd"
   xmlns:inkscape="http://www.inkscape.org/namespaces/inkscape"
   width="210mm"
   height="50mm"
   viewBox="0 0 210 50"
   version="1.1"
   id="svg8"
   sodipodi:docname="03e1.svg"
   inkscape:version="1.0.1 (3bc2e813f5, 2020-09-07, custom)">
  <defs
     id="defs2">
    <marker
       style="overflow:visible"
       id="marker1841"
       refX="0"
       refY="0"
       orient="auto"
       inkscape:stockid="Arrow1Mend"
       inkscape:isstock="true">
      <path
         transform="matrix(-0.4,0,0,-0.4,-4,0)"
         style="fill:#ff0000;fill-opacity:1;fill-rule:evenodd;stroke:#ff0000;stroke-width:1pt;stroke-opacity:1"
         d="M 0,0 5,-5 -12.5,0 5,5 Z"
         id="path1839" />
    </marker>
    <marker
       style="overflow:visible"
       id="Arrow2Lend"
       refX="0"
       refY="0"
       orient="auto"
       inkscape:stockid="Arrow2Lend"
       inkscape:isstock="true">
      <path
         transform="matrix(-1.1,0,0,-1.1,-1.1,0)"
         d="M 8.7185878,4.0337352 -2.2072895,0.01601326 8.7185884,-4.0017078 c -1.7454984,2.3720609 -1.7354408,5.6174519 -6e-7,8.035443 z"
         style="fill:#000000;fill-opacity:1;fill-rule:evenodd;stroke:#000000;stroke-width:0.625;stroke-linejoin:round;stroke-opacity:1"
         id="path1484" />
    </marker>
    <marker
       style="overflow:visible"
       id="Arrow1Send"
       refX="0"
       refY="0"
       orient="auto"
       inkscape:stockid="Arrow1Send"
       inkscape:isstock="true">
      <path
         transform="matrix(-0.2,0,0,-0.2,-1.2,0)"
         style="fill:#000000;fill-opacity:1;fill-rule:evenodd;stroke:#000000;stroke-width:1pt;stroke-opacity:1"
         d="M 0,0 5,-5 -12.5,0 5,5 Z"
         id="path1478" />
    </marker>
    <marker
       style="overflow:visible"
       id="Arrow1Mend"
       refX="0"
       refY="0"
       orient="auto"
       inkscape:stockid="Arrow1Mend"
       inkscape:isstock="true">
      <path
         transform="matrix(-0.4,0,0,-0.4,-4,0)"
         style="fill:#000000;fill-opacity:1;fill-rule:evenodd;stroke:#000000;stroke-width:1pt;stroke-opacity:1"
         d="M 0,0 5,-5 -12.5,0 5,5 Z"
         id="path1472" />
    </marker>
  </defs>
  <sodipodi:namedview
     id="base"
     pagecolor="#ffffff"
     bordercolor="#666666"
     borderopacity="1.0"
     inkscape:pageopacity="0.0"
     inkscape:pageshadow="2"
     inkscape:zoom="1.4"
     inkscape:cx="443.61258"
     inkscape:cy="145.57036"
     inkscape:document-units="mm"
     inkscape:current-layer="layer1"
     inkscape:document-rotation="0"
     showgrid="true"
     inkscape:window-width="1920"
     inkscape:window-height="1042"
     inkscape:window-x="0"
     inkscape:window-y="0"
     inkscape:window-maximized="0"
     inkscape:snap-global="false">
    <inkscape:grid
       type="xygrid"
       id="grid833" />
  </sodipodi:namedview>
  <metadata
     id="metadata5">
    <rdf:RDF>
      <cc:Work
         rdf:about="">
        <dc:format>image/svg+xml</dc:format>
        <dc:type
           rdf:resource="http://purl.org/dc/dcmitype/StillImage" />
        <dc:title></dc:title>
      </cc:Work>
    </rdf:RDF>
  </metadata>
  <g
     inkscape:label="Livello 1"
     inkscape:groupmode="layer"
     id="layer1">
    <rect
       style="fill:none;fill-opacity:1;stroke:#000000;stroke-width:0.565;stroke-miterlimit:4;stroke-dasharray:none;stroke-dashoffset:0;stroke-opacity:1"
       id="rect1441"
       width="17.015717"
       height="7.2540579"
       x="37.488453"
       y="23.437592" />
    <path
       style="fill:none;stroke:#000000;stroke-width:0.465;stroke-linecap:butt;stroke-linejoin:miter;stroke-miterlimit:4;stroke-dasharray:none;stroke-opacity:1"
       d="M 25.043155,30.994348 H 175.85567"
       id="path1443" />
    <rect
       style="fill:none;fill-opacity:1;stroke:#000000;stroke-width:0.565;stroke-miterlimit:4;stroke-dasharray:none;stroke-dashoffset:0;stroke-opacity:1"
       id="rect1445"
       width="17.015717"
       height="7.2540579"
       x="62.888477"
       y="23.437592" />
    <rect
       style="fill:none;fill-opacity:1;stroke:#000000;stroke-width:0.565;stroke-miterlimit:4;stroke-dasharray:none;stroke-dashoffset:0;stroke-opacity:1"
       id="rect1449"
       width="17.015717"
       height="7.2540579"
       x="113.15934"
       y="23.437592" />
    <path
       style="fill:none;stroke:#0000ff;stroke-width:0.465;stroke-linecap:butt;stroke-linejoin:miter;stroke-miterlimit:4;stroke-dasharray:none;stroke-opacity:1"
       d="m 54.769037,27.25278 h 7.9375"
       id="path1451" />
    <path
       style="fill:none;stroke:#0000ff;stroke-width:0.465;stroke-linecap:butt;stroke-linejoin:miter;stroke-miterlimit:4;stroke-dasharray:none;stroke-opacity:1"
       d="m 79.751526,27.252072 h 7.9375"
       id="path1453" />
    <path
       style="fill:none;stroke:#0000ff;stroke-width:0.465;stroke-linecap:butt;stroke-linejoin:miter;stroke-miterlimit:4;stroke-dasharray:none;stroke-opacity:1"
       d="m 105.04107,27.156321 h 7.93755"
       id="path1455" />
    <rect
       style="fill:none;fill-opacity:1;stroke:#000000;stroke-width:0.565;stroke-miterlimit:4;stroke-dasharray:none;stroke-dashoffset:0;stroke-opacity:1"
       id="rect1457"
       width="17.015717"
       height="7.2540579"
       x="138.55919"
       y="23.437592" />
    <path
       style="fill:none;stroke:#0000ff;stroke-width:0.465;stroke-linecap:butt;stroke-linejoin:miter;stroke-miterlimit:4;stroke-dasharray:none;stroke-opacity:1"
       d="m 130.44123,27.156321 h 7.93755"
       id="path1459" />
    <path
       style="fill:none;stroke:#ff0000;stroke-width:0.465;stroke-linecap:butt;stroke-linejoin:miter;stroke-miterlimit:4;stroke-dasharray:none;stroke-opacity:1;marker-end:url(#marker1841)"
       d="m 152.6646,27.252073 h 19.84375"
       id="path1461" />
    <g
       transform="matrix(0.64046938,0,0,0.64046938,170.99042,17.225885)"
       ns1:version="1.3.0"
       ns1:texconverter="pdflatex"
       ns1:pdfconverter="inkscape"
       ns1:text="$\\vec{F}$"
       ns1:preamble="/home/ivo/.config/inkscape/extensions/textext/default_packages.tex"
       ns1:scale="1.4102243770293006"
       ns1:alignment="middle center"
       ns1:inkscapeversion="1.0.1"
       ns1:jacobian_sqrt="0.497496"
       id="g2093">
      <defs
         id="id-c9231c91-edeb-4d72-948d-4151c85f27c1">
        <g
           id="id-f2b5a111-6f27-483b-9165-52df8d91df5d">
          <symbol
             overflow="visible"
             id="id-360ff61d-54a1-4053-a6c4-6e05f68de365">
            <path
               style="stroke:none;stroke-width:0"
               d=""
               id="id-778aed2f-0b6d-4e96-bc5b-1a348e247fc9" />
          </symbol>
          <symbol
             overflow="visible"
             id="id-4a26e9c5-19e9-4785-8f10-6fb0c253b49f">
            <path
               style="stroke:none;stroke-width:0"
               d="m 5.359375,-5.9375 c -0.140625,0.140625 -0.46875,0.421875 -0.46875,0.59375 0,0.09375 0.09375,0.203125 0.1875,0.203125 0.09375,0 0.140625,-0.078125 0.203125,-0.140625 C 5.390625,-5.421875 5.625,-5.703125 6.0625,-5.921875 6.125,-5.96875 6.234375,-6.015625 6.234375,-6.125 6.234375,-6.234375 6.15625,-6.28125 6.09375,-6.328125 5.875,-6.484375 5.765625,-6.65625 5.6875,-6.890625 5.65625,-6.984375 5.625,-7.125 5.484375,-7.125 c -0.140625,0 -0.203125,0.140625 -0.203125,0.21875 0,0.046875 0.078125,0.359375 0.234375,0.578125 H 2.15625 c -0.15625,0 -0.34375,0 -0.34375,0.203125 0,0.1875 0.1875,0.1875 0.34375,0.1875 z m 0,0"
               id="id-4656f17a-55d4-4dc6-8a0f-ebf825a3a9f6" />
          </symbol>
          <symbol
             overflow="visible"
             id="id-62dadff1-b66f-4c67-8fe7-8d5d60f99597">
            <path
               style="stroke:none;stroke-width:0"
               d="m 3.015625,-3.234375 h 0.96875 c 0.75,0 0.828125,0.15625 0.828125,0.4375 0,0.078125 0,0.1875 -0.0625,0.5 C 4.71875,-2.25 4.71875,-2.21875 4.71875,-2.1875 c 0,0.078125 0.0625,0.109375 0.109375,0.109375 0.109375,0 0.109375,-0.03125 0.15625,-0.203125 L 5.53125,-4.453125 C 5.5625,-4.5625 5.5625,-4.578125 5.5625,-4.609375 5.5625,-4.625 5.546875,-4.71875 5.4375,-4.71875 5.34375,-4.71875 5.328125,-4.671875 5.296875,-4.5 5.078125,-3.734375 4.859375,-3.546875 4,-3.546875 H 3.09375 l 0.640625,-2.53125 C 3.828125,-6.4375 3.84375,-6.46875 4.28125,-6.46875 h 1.3125 c 1.21875,0 1.453125,0.328125 1.453125,1.09375 0,0.234375 0,0.265625 -0.03125,0.546875 C 7,-4.703125 7,-4.6875 7,-4.65625 c 0,0.046875 0.03125,0.125 0.125,0.125 0.109375,0 0.109375,-0.0625 0.125,-0.25 L 7.453125,-6.515625 C 7.484375,-6.78125 7.4375,-6.78125 7.1875,-6.78125 H 2.296875 c -0.1875,0 -0.296875,0 -0.296875,0.203125 0,0.109375 0.09375,0.109375 0.28125,0.109375 0.375,0 0.65625,0 0.65625,0.171875 0,0.046875 0,0.0625 -0.0625,0.25 L 1.5625,-0.78125 c -0.09375,0.390625 -0.109375,0.46875 -0.90625,0.46875 -0.171875,0 -0.28125,0 -0.28125,0.1875 C 0.375,0 0.5,0 0.53125,0 0.8125,0 1.5625,-0.03125 1.84375,-0.03125 2.171875,-0.03125 3,0 3.328125,0 3.421875,0 3.53125,0 3.53125,-0.1875 3.53125,-0.265625 3.484375,-0.296875 3.484375,-0.296875 3.453125,-0.3125 3.421875,-0.3125 3.203125,-0.3125 c -0.21875,0 -0.265625,0 -0.515625,-0.015625 -0.296875,-0.03125 -0.328125,-0.078125 -0.328125,-0.203125 0,-0.015625 0,-0.078125 0.046875,-0.21875 z m 0,0"
               id="id-aa6a38f6-83f0-4e08-a9c3-daead5a16172" />
          </symbol>
        </g>
      </defs>
      <g
         id="id-8ab2f9a8-157d-4a1a-baa0-8f28fc4bb380"
         transform="translate(-149.087,-125.121)">
        <g
           style="fill:#000000;fill-opacity:1"
           id="id-84ec6fc3-6355-4e56-8ca8-57763cb4b3a3">
          <g
             transform="translate(150.181,132.246)"
             id="g2085">
            <path
               style="stroke:none;stroke-width:0"
               d="m 5.359375,-5.9375 c -0.140625,0.140625 -0.46875,0.421875 -0.46875,0.59375 0,0.09375 0.09375,0.203125 0.1875,0.203125 0.09375,0 0.140625,-0.078125 0.203125,-0.140625 C 5.390625,-5.421875 5.625,-5.703125 6.0625,-5.921875 6.125,-5.96875 6.234375,-6.015625 6.234375,-6.125 6.234375,-6.234375 6.15625,-6.28125 6.09375,-6.328125 5.875,-6.484375 5.765625,-6.65625 5.6875,-6.890625 5.65625,-6.984375 5.625,-7.125 5.484375,-7.125 c -0.140625,0 -0.203125,0.140625 -0.203125,0.21875 0,0.046875 0.078125,0.359375 0.234375,0.578125 H 2.15625 c -0.15625,0 -0.34375,0 -0.34375,0.203125 0,0.1875 0.1875,0.1875 0.34375,0.1875 z m 0,0"
               id="id-82c2211e-19c0-4023-a9b1-661f1b2f34ef" />
          </g>
        </g>
        <g
           style="fill:#000000;fill-opacity:1"
           id="id-09568476-63e3-4ad2-979b-b412b56c52a4">
          <g
             transform="translate(148.712,134.765)"
             id="g2089">
            <path
               style="stroke:none;stroke-width:0"
               d="m 3.015625,-3.234375 h 0.96875 c 0.75,0 0.828125,0.15625 0.828125,0.4375 0,0.078125 0,0.1875 -0.0625,0.5 C 4.71875,-2.25 4.71875,-2.21875 4.71875,-2.1875 c 0,0.078125 0.0625,0.109375 0.109375,0.109375 0.109375,0 0.109375,-0.03125 0.15625,-0.203125 L 5.53125,-4.453125 C 5.5625,-4.5625 5.5625,-4.578125 5.5625,-4.609375 5.5625,-4.625 5.546875,-4.71875 5.4375,-4.71875 5.34375,-4.71875 5.328125,-4.671875 5.296875,-4.5 5.078125,-3.734375 4.859375,-3.546875 4,-3.546875 H 3.09375 l 0.640625,-2.53125 C 3.828125,-6.4375 3.84375,-6.46875 4.28125,-6.46875 h 1.3125 c 1.21875,0 1.453125,0.328125 1.453125,1.09375 0,0.234375 0,0.265625 -0.03125,0.546875 C 7,-4.703125 7,-4.6875 7,-4.65625 c 0,0.046875 0.03125,0.125 0.125,0.125 0.109375,0 0.109375,-0.0625 0.125,-0.25 L 7.453125,-6.515625 C 7.484375,-6.78125 7.4375,-6.78125 7.1875,-6.78125 H 2.296875 c -0.1875,0 -0.296875,0 -0.296875,0.203125 0,0.109375 0.09375,0.109375 0.28125,0.109375 0.375,0 0.65625,0 0.65625,0.171875 0,0.046875 0,0.0625 -0.0625,0.25 L 1.5625,-0.78125 c -0.09375,0.390625 -0.109375,0.46875 -0.90625,0.46875 -0.171875,0 -0.28125,0 -0.28125,0.1875 C 0.375,0 0.5,0 0.53125,0 0.8125,0 1.5625,-0.03125 1.84375,-0.03125 2.171875,-0.03125 3,0 3.328125,0 3.421875,0 3.53125,0 3.53125,-0.1875 3.53125,-0.265625 3.484375,-0.296875 3.484375,-0.296875 3.453125,-0.3125 3.421875,-0.3125 3.203125,-0.3125 c -0.21875,0 -0.265625,0 -0.515625,-0.015625 -0.296875,-0.03125 -0.328125,-0.078125 -0.328125,-0.203125 0,-0.015625 0,-0.078125 0.046875,-0.21875 z m 0,0"
               id="id-024fc966-14ea-473b-8cf8-c4a5bfdf51f4" />
          </g>
        </g>
      </g>
    </g>
    <path
       style="fill:none;stroke:#000000;stroke-width:0.26499999;stroke-linecap:butt;stroke-linejoin:miter;stroke-miterlimit:4;stroke-dasharray:2.1199999,2.1199999;stroke-dashoffset:0;stroke-opacity:1"
       d="m 88.722197,27.19138 18.753333,-0.0045"
       id="path2164"
       sodipodi:nodetypes="cc" />
  </g>
</svg>
