<?xml version="1.0" encoding="UTF-8" standalone="no"?>
<svg
   xmlns:ns4="http://www.iki.fi/pav/software/textext/"
   xmlns:dc="http://purl.org/dc/elements/1.1/"
   xmlns:cc="http://creativecommons.org/ns#"
   xmlns:rdf="http://www.w3.org/1999/02/22-rdf-syntax-ns#"
   xmlns:svg="http://www.w3.org/2000/svg"
   xmlns="http://www.w3.org/2000/svg"
   xmlns:sodipodi="http://sodipodi.sourceforge.net/DTD/sodipodi-0.dtd"
   xmlns:inkscape="http://www.inkscape.org/namespaces/inkscape"
   width="189.4099mm"
   height="97.832657mm"
   viewBox="0 0 189.4099 97.832657"
   version="1.1"
   id="svg8"
   sodipodi:docname="1222.svg"
   inkscape:version="1.0.1 (3bc2e813f5, 2020-09-07, custom)">
  <defs
     id="defs2">
    <filter
       inkscape:collect="always"
       style="color-interpolation-filters:sRGB"
       id="filter1035"
       x="-0.37945417"
       width="1.7589083"
       y="-0.75890833"
       height="2.5178168">
      <feGaussianBlur
         inkscape:collect="always"
         stdDeviation="1.6732875"
         id="feGaussianBlur1037" />
    </filter>
  </defs>
  <sodipodi:namedview
     id="base"
     pagecolor="#ffffff"
     bordercolor="#666666"
     borderopacity="1.0"
     inkscape:pageopacity="0.0"
     inkscape:pageshadow="2"
     inkscape:zoom="1.5"
     inkscape:cx="431.15374"
     inkscape:cy="191.27563"
     inkscape:document-units="mm"
     inkscape:current-layer="layer1"
     inkscape:document-rotation="0"
     showgrid="false"
     inkscape:window-width="1920"
     inkscape:window-height="1042"
     inkscape:window-x="0"
     inkscape:window-y="0"
     inkscape:window-maximized="0"
     inkscape:snap-global="true">
    <inkscape:grid
       type="xygrid"
       id="grid10"
       originx="-41.780994"
       originy="-3.2272319" />
  </sodipodi:namedview>
  <metadata
     id="metadata5">
    <rdf:RDF>
      <cc:Work
         rdf:about="">
        <dc:format>image/svg+xml</dc:format>
        <dc:type
           rdf:resource="http://purl.org/dc/dcmitype/StillImage" />
        <dc:title />
      </cc:Work>
    </rdf:RDF>
  </metadata>
  <g
     inkscape:label="Livello 1"
     inkscape:groupmode="layer"
     id="layer1"
     transform="translate(-41.780992,-3.2272323)">
    <rect
       style="fill:#ff0012;fill-opacity:0.667829;stroke:none;stroke-width:0.264999;filter:url(#filter1035)"
       id="rect14"
       width="10.583333"
       height="5.2916665"
       x="60.854164"
       y="23.8125"
       transform="matrix(1.2226765,0,0,1.0339513,-4.297958,5.4650451)" />
    <rect
       style="fill:#ff0012;fill-opacity:0.667829;stroke:none;stroke-width:0.264999;filter:url(#filter1035)"
       id="rect1039"
       width="10.583333"
       height="5.2916665"
       x="60.854164"
       y="23.8125"
       transform="matrix(1.2226765,0,0,1.0339513,18.994042,5.4650451)" />
    <rect
       style="fill:#ff0012;fill-opacity:0.667829;stroke:none;stroke-width:0.264999;filter:url(#filter1035)"
       id="rect1045"
       width="10.583333"
       height="5.2916665"
       x="60.854164"
       y="23.8125"
       transform="matrix(1.2226765,0,0,1.0339513,42.286041,5.4650451)" />
    <rect
       style="fill:#ff0012;fill-opacity:0.667829;stroke:none;stroke-width:0.264999;filter:url(#filter1035)"
       id="rect1047"
       width="10.583333"
       height="5.2916665"
       x="60.854164"
       y="23.8125"
       transform="matrix(1.2226765,0,0,1.0339513,65.578041,5.4650451)" />
    <rect
       style="fill:#ff0012;fill-opacity:0.667829;stroke:none;stroke-width:0.264999;filter:url(#filter1035)"
       id="rect1049"
       width="10.583333"
       height="5.2916665"
       x="60.854164"
       y="23.8125"
       transform="matrix(1.2226765,0,0,1.0339513,88.007374,5.4650451)" />
    <rect
       style="fill:#ff0012;fill-opacity:0.667829;stroke:none;stroke-width:0.264999;filter:url(#filter1035)"
       id="rect1051"
       width="10.583333"
       height="5.2916665"
       x="60.854164"
       y="23.8125"
       transform="matrix(1.2226765,0,0,1.0339513,112.16204,5.4650451)" />
    <rect
       style="fill:#ff0012;fill-opacity:0.667829;stroke:none;stroke-width:0.264999;filter:url(#filter1035)"
       id="rect1053"
       width="10.583333"
       height="5.2916665"
       x="60.854164"
       y="23.8125"
       transform="matrix(1.2226765,0,0,1.0339513,-26.727283,5.4650451)" />
    <path
       style="fill:none;stroke:#ff0000;stroke-width:0.560918;stroke-linecap:butt;stroke-linejoin:miter;stroke-miterlimit:4;stroke-dasharray:2.24368, 2.24368;stroke-dashoffset:0;stroke-opacity:1"
       d="M 122.72964,93.553378 V 33.368802"
       id="path1055"
       sodipodi:nodetypes="cc" />
    <g
       transform="matrix(0.55679191,0,0,0.55679191,115.00442,21.929117)"
       ns4:version="1.3.0"
       ns4:texconverter="pdflatex"
       ns4:pdfconverter="inkscape"
       ns4:text="$\\theta_0 = 0$"
       ns4:preamble="/home/ivo/.config/inkscape/extensions/textext/default_packages.tex"
       ns4:scale="1.2211830669712966"
       ns4:alignment="middle center"
       ns4:jacobian_sqrt="0.430807"
       id="g1104">
      <defs
         id="id-c30c5767-66a6-413a-8af1-1898ba2d62c9">
        <g
           id="id-a5b44084-f53f-4659-9992-5a84961ecd26">
          <symbol
             overflow="visible"
             id="id-e3c534b2-c6ef-49a1-9d99-140624f4170e">
            <path
               style="stroke:none;stroke-width:0"
               d=""
               id="id-220a4f6c-52f0-4ce4-8238-89c83decd627" />
          </symbol>
          <symbol
             overflow="visible"
             id="id-d8e7a72a-ba89-4160-b862-b14f53ac6a53">
            <path
               style="stroke:none;stroke-width:0"
               d="m 4.53125,-4.984375 c 0,-0.65625 -0.171875,-2.046875 -1.1875,-2.046875 -1.390625,0 -2.921875,2.8125 -2.921875,5.09375 0,0.9375 0.28125,2.046875 1.1875,2.046875 1.40625,0 2.921875,-2.859375 2.921875,-5.09375 z M 1.46875,-3.625 C 1.640625,-4.25 1.84375,-5.046875 2.25,-5.765625 2.515625,-6.25 2.875,-6.8125 3.328125,-6.8125 c 0.484375,0 0.546875,0.640625 0.546875,1.203125 0,0.5 -0.078125,1 -0.3125,1.984375 z m 2,0.328125 C 3.359375,-2.84375 3.15625,-2 2.765625,-1.28125 c -0.34375,0.6875 -0.71875,1.171875 -1.15625,1.171875 -0.328125,0 -0.53125,-0.296875 -0.53125,-1.21875 0,-0.421875 0.0625,-1 0.3125,-1.96875 z m 0,0"
               id="id-5532552b-5a8e-4aa0-bb77-412042188c2c" />
          </symbol>
          <symbol
             overflow="visible"
             id="id-30c66fdc-f3ae-4eb8-a7a6-12fe4c76d818">
            <path
               style="stroke:none;stroke-width:0"
               d=""
               id="id-6d6977b0-d6e2-4da1-978e-4497b1f2f476" />
          </symbol>
          <symbol
             overflow="visible"
             id="id-6f140e4d-2c50-404f-96d7-5b9f1621a630">
            <path
               style="stroke:none;stroke-width:0"
               d="M 3.59375,-2.21875 C 3.59375,-2.984375 3.5,-3.546875 3.1875,-4.03125 2.96875,-4.34375 2.53125,-4.625 1.984375,-4.625 c -1.625,0 -1.625,1.90625 -1.625,2.40625 0,0.5 0,2.359375 1.625,2.359375 1.609375,0 1.609375,-1.859375 1.609375,-2.359375 z M 1.984375,-0.0625 c -0.328125,0 -0.75,-0.1875 -0.890625,-0.75 C 1,-1.21875 1,-1.796875 1,-2.3125 1,-2.828125 1,-3.359375 1.09375,-3.734375 1.25,-4.28125 1.6875,-4.4375 1.984375,-4.4375 c 0.375,0 0.734375,0.234375 0.859375,0.640625 0.109375,0.375 0.125,0.875 0.125,1.484375 0,0.515625 0,1.03125 -0.09375,1.46875 -0.140625,0.640625 -0.609375,0.78125 -0.890625,0.78125 z m 0,0"
               id="id-72c48330-3776-4a8d-b9a8-49b4d7df0122" />
          </symbol>
          <symbol
             overflow="visible"
             id="id-93e0b8dd-fcf2-4c4e-8f7a-2c9842ed4170">
            <path
               style="stroke:none;stroke-width:0"
               d=""
               id="id-a51c7221-36b5-4e5b-ad90-946270a4a7fa" />
          </symbol>
          <symbol
             overflow="visible"
             id="id-908c0557-3fe2-49d0-b856-285336e2764d">
            <path
               style="stroke:none;stroke-width:0"
               d="m 6.84375,-3.265625 c 0.15625,0 0.34375,0 0.34375,-0.1875 C 7.1875,-3.65625 7,-3.65625 6.859375,-3.65625 h -5.96875 c -0.140625,0 -0.328125,0 -0.328125,0.203125 0,0.1875 0.1875,0.1875 0.328125,0.1875 z m 0.015625,1.9375 c 0.140625,0 0.328125,0 0.328125,-0.203125 0,-0.1875 -0.1875,-0.1875 -0.34375,-0.1875 H 0.890625 c -0.140625,0 -0.328125,0 -0.328125,0.1875 0,0.203125 0.1875,0.203125 0.328125,0.203125 z m 0,0"
               id="id-39da18c9-3442-47e5-a050-6d33111c2ebb" />
          </symbol>
          <symbol
             overflow="visible"
             id="id-598e0db2-732b-48e0-afae-8c961c3ed19f">
            <path
               style="stroke:none;stroke-width:0"
               d="m 4.578125,-3.1875 c 0,-0.796875 -0.046875,-1.59375 -0.390625,-2.328125 -0.453125,-0.96875 -1.28125,-1.125 -1.6875,-1.125 -0.609375,0 -1.328125,0.265625 -1.75,1.1875 -0.3125,0.6875 -0.359375,1.46875 -0.359375,2.265625 0,0.75 0.03125,1.640625 0.453125,2.40625 0.421875,0.796875 1.15625,1 1.640625,1 0.53125,0 1.296875,-0.203125 1.734375,-1.15625 0.3125,-0.6875 0.359375,-1.46875 0.359375,-2.25 z M 2.484375,0 C 2.09375,0 1.5,-0.25 1.328125,-1.203125 1.21875,-1.796875 1.21875,-2.71875 1.21875,-3.3125 c 0,-0.640625 0,-1.296875 0.078125,-1.828125 0.1875,-1.1875 0.9375,-1.28125 1.1875,-1.28125 0.328125,0 0.984375,0.1875 1.171875,1.171875 0.109375,0.5625 0.109375,1.3125 0.109375,1.9375 0,0.75 0,1.421875 -0.109375,2.0625 C 3.5,-0.296875 2.9375,0 2.484375,0 Z m 0,0"
               id="id-0337c10d-5372-4494-b48f-e35dc09ac996" />
          </symbol>
        </g>
      </defs>
      <g
         id="id-bdc678dd-27fd-41e0-807a-4f48735b3652"
         transform="translate(-149.134,-127.734)">
        <g
           style="fill:#000000;fill-opacity:1"
           id="id-523c9bb2-4691-4f25-8632-d558f6f91c1d">
          <g
             transform="translate(148.712,134.765)"
             id="g1088">
            <path
               style="stroke:none;stroke-width:0"
               d="m 4.53125,-4.984375 c 0,-0.65625 -0.171875,-2.046875 -1.1875,-2.046875 -1.390625,0 -2.921875,2.8125 -2.921875,5.09375 0,0.9375 0.28125,2.046875 1.1875,2.046875 1.40625,0 2.921875,-2.859375 2.921875,-5.09375 z M 1.46875,-3.625 C 1.640625,-4.25 1.84375,-5.046875 2.25,-5.765625 2.515625,-6.25 2.875,-6.8125 3.328125,-6.8125 c 0.484375,0 0.546875,0.640625 0.546875,1.203125 0,0.5 -0.078125,1 -0.3125,1.984375 z m 2,0.328125 C 3.359375,-2.84375 3.15625,-2 2.765625,-1.28125 c -0.34375,0.6875 -0.71875,1.171875 -1.15625,1.171875 -0.328125,0 -0.53125,-0.296875 -0.53125,-1.21875 0,-0.421875 0.0625,-1 0.3125,-1.96875 z m 0,0"
               id="id-3d780985-f216-4a67-9c9a-14abf4ca2a98" />
          </g>
        </g>
        <g
           style="fill:#000000;fill-opacity:1"
           id="id-2b9b4fca-5e00-49e6-b9fc-c2cea1c415a9">
          <g
             transform="translate(153.389,136.259)"
             id="g1092">
            <path
               style="stroke:none;stroke-width:0"
               d="M 3.59375,-2.21875 C 3.59375,-2.984375 3.5,-3.546875 3.1875,-4.03125 2.96875,-4.34375 2.53125,-4.625 1.984375,-4.625 c -1.625,0 -1.625,1.90625 -1.625,2.40625 0,0.5 0,2.359375 1.625,2.359375 1.609375,0 1.609375,-1.859375 1.609375,-2.359375 z M 1.984375,-0.0625 c -0.328125,0 -0.75,-0.1875 -0.890625,-0.75 C 1,-1.21875 1,-1.796875 1,-2.3125 1,-2.828125 1,-3.359375 1.09375,-3.734375 1.25,-4.28125 1.6875,-4.4375 1.984375,-4.4375 c 0.375,0 0.734375,0.234375 0.859375,0.640625 0.109375,0.375 0.125,0.875 0.125,1.484375 0,0.515625 0,1.03125 -0.09375,1.46875 -0.140625,0.640625 -0.609375,0.78125 -0.890625,0.78125 z m 0,0"
               id="id-c76eeff8-c969-4498-b1cb-03766d23e0b7" />
          </g>
        </g>
        <g
           style="fill:#000000;fill-opacity:1"
           id="id-9924e37d-30d0-477a-b6d0-d69ce1f06d94">
          <g
             transform="translate(160.626,134.765)"
             id="g1096">
            <path
               style="stroke:none;stroke-width:0"
               d="m 6.84375,-3.265625 c 0.15625,0 0.34375,0 0.34375,-0.1875 C 7.1875,-3.65625 7,-3.65625 6.859375,-3.65625 h -5.96875 c -0.140625,0 -0.328125,0 -0.328125,0.203125 0,0.1875 0.1875,0.1875 0.328125,0.1875 z m 0.015625,1.9375 c 0.140625,0 0.328125,0 0.328125,-0.203125 0,-0.1875 -0.1875,-0.1875 -0.34375,-0.1875 H 0.890625 c -0.140625,0 -0.328125,0 -0.328125,0.1875 0,0.203125 0.1875,0.203125 0.328125,0.203125 z m 0,0"
               id="id-e38ad4fb-e034-45e0-a130-56cb222d2e73" />
          </g>
        </g>
        <g
           style="fill:#000000;fill-opacity:1"
           id="id-22bf8241-34b3-40a9-bcf0-3a59098b7371">
          <g
             transform="translate(171.145,134.765)"
             id="g1100">
            <path
               style="stroke:none;stroke-width:0"
               d="m 4.578125,-3.1875 c 0,-0.796875 -0.046875,-1.59375 -0.390625,-2.328125 -0.453125,-0.96875 -1.28125,-1.125 -1.6875,-1.125 -0.609375,0 -1.328125,0.265625 -1.75,1.1875 -0.3125,0.6875 -0.359375,1.46875 -0.359375,2.265625 0,0.75 0.03125,1.640625 0.453125,2.40625 0.421875,0.796875 1.15625,1 1.640625,1 0.53125,0 1.296875,-0.203125 1.734375,-1.15625 0.3125,-0.6875 0.359375,-1.46875 0.359375,-2.25 z M 2.484375,0 C 2.09375,0 1.5,-0.25 1.328125,-1.203125 1.21875,-1.796875 1.21875,-2.71875 1.21875,-3.3125 c 0,-0.640625 0,-1.296875 0.078125,-1.828125 0.1875,-1.1875 0.9375,-1.28125 1.1875,-1.28125 0.328125,0 0.984375,0.1875 1.171875,1.171875 0.109375,0.5625 0.109375,1.3125 0.109375,1.9375 0,0.75 0,1.421875 -0.109375,2.0625 C 3.5,-0.296875 2.9375,0 2.484375,0 Z m 0,0"
               id="id-5d301b23-91ae-4a47-955e-6cd85b2bedc2" />
          </g>
        </g>
      </g>
    </g>
    <path
       style="fill:none;stroke:#ff0000;stroke-width:0.486559;stroke-linecap:butt;stroke-linejoin:miter;stroke-miterlimit:4;stroke-dasharray:1.94623, 1.94623;stroke-dashoffset:0;stroke-opacity:1"
       d="M 122.72964,93.553378 145.89813,32.838981"
       id="path1139"
       sodipodi:nodetypes="cc" />
    <path
       style="fill:none;stroke:#ff0000;stroke-width:0.486559;stroke-linecap:butt;stroke-linejoin:miter;stroke-miterlimit:4;stroke-dasharray:1.94623, 1.94623;stroke-dashoffset:0;stroke-opacity:1"
       d="M 122.72964,93.553378 167.945,33.946549"
       id="path1141"
       sodipodi:nodetypes="cc" />
    <path
       style="fill:none;stroke:#ff0000;stroke-width:0.486559;stroke-linecap:butt;stroke-linejoin:miter;stroke-miterlimit:4;stroke-dasharray:1.94623, 1.94623;stroke-dashoffset:0;stroke-opacity:1"
       d="M 122.72964,93.553378 192.65303,33.695422"
       id="path1143"
       sodipodi:nodetypes="cc" />
    <g
       transform="matrix(0.55679191,0,0,0.55679191,145.60988,21.968154)"
       ns4:version="1.3.0"
       ns4:texconverter="pdflatex"
       ns4:pdfconverter="inkscape"
       ns4:text="$\\theta_1$"
       ns4:preamble="/home/ivo/.config/inkscape/extensions/textext/default_packages.tex"
       ns4:scale="1.2211830669712966"
       ns4:alignment="middle center"
       ns4:jacobian_sqrt="0.430807"
       id="g1203">
      <defs
         id="id-81fcbef0-134e-4f4d-85a3-dfd4992d558f">
        <g
           id="id-9233ab52-d7a5-410c-a44a-d434d5fca5c2">
          <symbol
             overflow="visible"
             id="id-c8bdb98e-6f44-4416-bbd3-5028386158db">
            <path
               style="stroke:none"
               d=""
               id="id-7e4dcbea-fb45-459c-a107-822d3d88966e" />
          </symbol>
          <symbol
             overflow="visible"
             id="id-c1140e40-cdd0-486d-a23a-e4d65ec549ce">
            <path
               style="stroke:none"
               d="m 4.53125,-4.984375 c 0,-0.65625 -0.171875,-2.046875 -1.1875,-2.046875 -1.390625,0 -2.921875,2.8125 -2.921875,5.09375 0,0.9375 0.28125,2.046875 1.1875,2.046875 1.40625,0 2.921875,-2.859375 2.921875,-5.09375 z M 1.46875,-3.625 C 1.640625,-4.25 1.84375,-5.046875 2.25,-5.765625 2.515625,-6.25 2.875,-6.8125 3.328125,-6.8125 c 0.484375,0 0.546875,0.640625 0.546875,1.203125 0,0.5 -0.078125,1 -0.3125,1.984375 z m 2,0.328125 C 3.359375,-2.84375 3.15625,-2 2.765625,-1.28125 c -0.34375,0.6875 -0.71875,1.171875 -1.15625,1.171875 -0.328125,0 -0.53125,-0.296875 -0.53125,-1.21875 0,-0.421875 0.0625,-1 0.3125,-1.96875 z m 0,0"
               id="id-e68fdbcb-b6d2-4983-80d0-4a9e06336da5" />
          </symbol>
          <symbol
             overflow="visible"
             id="id-a8a265ee-e9df-4c3b-97d5-ace95d78596a">
            <path
               style="stroke:none"
               d=""
               id="id-7066deee-0688-4ae4-9a5a-a739772b539c" />
          </symbol>
          <symbol
             overflow="visible"
             id="id-0476dddb-9cfc-4716-9c2d-91b02be580fd">
            <path
               style="stroke:none"
               d="m 2.328125,-4.4375 c 0,-0.1875 0,-0.1875 -0.203125,-0.1875 -0.453125,0.4375 -1.078125,0.4375 -1.359375,0.4375 v 0.25 c 0.15625,0 0.625,0 1,-0.1875 v 3.546875 c 0,0.234375 0,0.328125 -0.6875,0.328125 H 0.8125 V 0 c 0.125,0 0.984375,-0.03125 1.234375,-0.03125 0.21875,0 1.09375,0.03125 1.25,0.03125 V -0.25 H 3.03125 c -0.703125,0 -0.703125,-0.09375 -0.703125,-0.328125 z m 0,0"
               id="id-ee32d071-d9c2-494d-9059-a0cfbcb398db" />
          </symbol>
        </g>
      </defs>
      <g
         id="id-9727ec54-1d43-4f94-bf2b-8eded6bc985a"
         transform="translate(-149.134,-127.734)">
        <g
           style="fill:#000000;fill-opacity:1"
           id="id-8e18f53c-daa5-4935-9506-ebd1855fa378">
          <g
             transform="translate(148.712,134.765)"
             id="g1263">
            <path
               style="stroke:none"
               d="m 4.53125,-4.984375 c 0,-0.65625 -0.171875,-2.046875 -1.1875,-2.046875 -1.390625,0 -2.921875,2.8125 -2.921875,5.09375 0,0.9375 0.28125,2.046875 1.1875,2.046875 1.40625,0 2.921875,-2.859375 2.921875,-5.09375 z M 1.46875,-3.625 C 1.640625,-4.25 1.84375,-5.046875 2.25,-5.765625 2.515625,-6.25 2.875,-6.8125 3.328125,-6.8125 c 0.484375,0 0.546875,0.640625 0.546875,1.203125 0,0.5 -0.078125,1 -0.3125,1.984375 z m 2,0.328125 C 3.359375,-2.84375 3.15625,-2 2.765625,-1.28125 c -0.34375,0.6875 -0.71875,1.171875 -1.15625,1.171875 -0.328125,0 -0.53125,-0.296875 -0.53125,-1.21875 0,-0.421875 0.0625,-1 0.3125,-1.96875 z m 0,0"
               id="id-ccb7c3d6-151a-4baa-8ab2-0f7d577fd81e" />
          </g>
        </g>
        <g
           style="fill:#000000;fill-opacity:1"
           id="id-2ef6efc0-7d64-4eff-9b89-9187060af205">
          <g
             transform="translate(153.389,136.259)"
             id="g1267">
            <path
               style="stroke:none"
               d="m 2.328125,-4.4375 c 0,-0.1875 0,-0.1875 -0.203125,-0.1875 -0.453125,0.4375 -1.078125,0.4375 -1.359375,0.4375 v 0.25 c 0.15625,0 0.625,0 1,-0.1875 v 3.546875 c 0,0.234375 0,0.328125 -0.6875,0.328125 H 0.8125 V 0 c 0.125,0 0.984375,-0.03125 1.234375,-0.03125 0.21875,0 1.09375,0.03125 1.25,0.03125 V -0.25 H 3.03125 c -0.703125,0 -0.703125,-0.09375 -0.703125,-0.328125 z m 0,0"
               id="id-cb706490-cdbe-4f6d-ac4a-4af5738b4e2b" />
          </g>
        </g>
      </g>
    </g>
    <g
       transform="matrix(0.55679191,0,0,0.55679191,168.80294,21.968026)"
       ns4:version="1.3.0"
       ns4:texconverter="pdflatex"
       ns4:pdfconverter="inkscape"
       ns4:text="$\\theta_2$"
       ns4:preamble="/home/ivo/.config/inkscape/extensions/textext/default_packages.tex"
       ns4:scale="1.2211830669712966"
       ns4:alignment="middle center"
       ns4:jacobian_sqrt="0.430807"
       id="g1327">
      <defs
         id="id-1a03aa6e-0008-47c3-9ed5-48fe9070142b">
        <g
           id="id-66771299-c923-4751-a568-15432d4b205e">
          <symbol
             overflow="visible"
             id="id-c47500cc-9a78-4569-8a58-a9886f860237">
            <path
               style="stroke:none"
               d=""
               id="id-421310aa-866b-4730-9c3b-fdee7c846258" />
          </symbol>
          <symbol
             overflow="visible"
             id="id-4eb999f3-dad3-4f61-a9bb-758f2bad76fd">
            <path
               style="stroke:none"
               d="m 4.53125,-4.984375 c 0,-0.65625 -0.171875,-2.046875 -1.1875,-2.046875 -1.390625,0 -2.921875,2.8125 -2.921875,5.09375 0,0.9375 0.28125,2.046875 1.1875,2.046875 1.40625,0 2.921875,-2.859375 2.921875,-5.09375 z M 1.46875,-3.625 C 1.640625,-4.25 1.84375,-5.046875 2.25,-5.765625 2.515625,-6.25 2.875,-6.8125 3.328125,-6.8125 c 0.484375,0 0.546875,0.640625 0.546875,1.203125 0,0.5 -0.078125,1 -0.3125,1.984375 z m 2,0.328125 C 3.359375,-2.84375 3.15625,-2 2.765625,-1.28125 c -0.34375,0.6875 -0.71875,1.171875 -1.15625,1.171875 -0.328125,0 -0.53125,-0.296875 -0.53125,-1.21875 0,-0.421875 0.0625,-1 0.3125,-1.96875 z m 0,0"
               id="id-5eeab353-fe7c-4c6f-b35f-59ba35f6776d" />
          </symbol>
          <symbol
             overflow="visible"
             id="id-b93109c3-1762-42e9-973c-3e1e7e381bf7">
            <path
               style="stroke:none"
               d=""
               id="id-e69ae983-3ac2-4841-ac02-80bf1d4b49e8" />
          </symbol>
          <symbol
             overflow="visible"
             id="id-2cb0a189-2ccb-4f26-b81c-2b5ad095cd4b">
            <path
               style="stroke:none"
               d="M 3.515625,-1.265625 H 3.28125 c -0.015625,0.15625 -0.09375,0.5625 -0.1875,0.625 C 3.046875,-0.59375 2.515625,-0.59375 2.40625,-0.59375 H 1.125 c 0.734375,-0.640625 0.984375,-0.84375 1.390625,-1.171875 0.515625,-0.40625 1,-0.84375 1,-1.5 0,-0.84375 -0.734375,-1.359375 -1.625,-1.359375 -0.859375,0 -1.453125,0.609375 -1.453125,1.25 0,0.34375 0.296875,0.390625 0.375,0.390625 0.15625,0 0.359375,-0.125 0.359375,-0.375 0,-0.125 -0.046875,-0.375 -0.40625,-0.375 C 0.984375,-4.21875 1.453125,-4.375 1.78125,-4.375 c 0.703125,0 1.0625,0.546875 1.0625,1.109375 0,0.609375 -0.4375,1.078125 -0.65625,1.328125 L 0.515625,-0.265625 C 0.4375,-0.203125 0.4375,-0.1875 0.4375,0 h 2.875 z m 0,0"
               id="id-05214831-3688-4b1a-a9a7-1ed0f36cd012" />
          </symbol>
        </g>
      </defs>
      <g
         id="id-a34b4276-6169-486a-ae07-7480a65f07d7"
         transform="translate(-149.134,-127.734)">
        <g
           style="fill:#000000;fill-opacity:1"
           id="id-556bd8c7-72d1-46fc-98ea-8e84253d2c48">
          <g
             transform="translate(148.712,134.765)"
             id="g1405">
            <path
               style="stroke:none"
               d="m 4.53125,-4.984375 c 0,-0.65625 -0.171875,-2.046875 -1.1875,-2.046875 -1.390625,0 -2.921875,2.8125 -2.921875,5.09375 0,0.9375 0.28125,2.046875 1.1875,2.046875 1.40625,0 2.921875,-2.859375 2.921875,-5.09375 z M 1.46875,-3.625 C 1.640625,-4.25 1.84375,-5.046875 2.25,-5.765625 2.515625,-6.25 2.875,-6.8125 3.328125,-6.8125 c 0.484375,0 0.546875,0.640625 0.546875,1.203125 0,0.5 -0.078125,1 -0.3125,1.984375 z m 2,0.328125 C 3.359375,-2.84375 3.15625,-2 2.765625,-1.28125 c -0.34375,0.6875 -0.71875,1.171875 -1.15625,1.171875 -0.328125,0 -0.53125,-0.296875 -0.53125,-1.21875 0,-0.421875 0.0625,-1 0.3125,-1.96875 z m 0,0"
               id="id-f052b3ff-1379-4f92-b004-969bbbc5429a" />
          </g>
        </g>
        <g
           style="fill:#000000;fill-opacity:1"
           id="id-9526ed1c-3850-4e12-9c49-0e0f1cfbd660">
          <g
             transform="translate(153.389,136.259)"
             id="g1409">
            <path
               style="stroke:none"
               d="M 3.515625,-1.265625 H 3.28125 c -0.015625,0.15625 -0.09375,0.5625 -0.1875,0.625 C 3.046875,-0.59375 2.515625,-0.59375 2.40625,-0.59375 H 1.125 c 0.734375,-0.640625 0.984375,-0.84375 1.390625,-1.171875 0.515625,-0.40625 1,-0.84375 1,-1.5 0,-0.84375 -0.734375,-1.359375 -1.625,-1.359375 -0.859375,0 -1.453125,0.609375 -1.453125,1.25 0,0.34375 0.296875,0.390625 0.375,0.390625 0.15625,0 0.359375,-0.125 0.359375,-0.375 0,-0.125 -0.046875,-0.375 -0.40625,-0.375 C 0.984375,-4.21875 1.453125,-4.375 1.78125,-4.375 c 0.703125,0 1.0625,0.546875 1.0625,1.109375 0,0.609375 -0.4375,1.078125 -0.65625,1.328125 L 0.515625,-0.265625 C 0.4375,-0.203125 0.4375,-0.1875 0.4375,0 h 2.875 z m 0,0"
               id="id-b8ad1ab7-c466-4687-97c7-0fc8dcf2117d" />
          </g>
        </g>
      </g>
    </g>
    <g
       transform="matrix(0.55679191,0,0,0.55679191,193.40626,21.928735)"
       ns4:version="1.3.0"
       ns4:texconverter="pdflatex"
       ns4:pdfconverter="inkscape"
       ns4:text="$\\theta_3$"
       ns4:preamble="/home/ivo/.config/inkscape/extensions/textext/default_packages.tex"
       ns4:scale="1.2211830669712966"
       ns4:alignment="middle center"
       ns4:jacobian_sqrt="0.430807"
       id="g1469">
      <defs
         id="id-48963ebe-e69a-4c5d-b357-b70af2ed6e52">
        <g
           id="id-9d150ddd-bb34-4ff2-add8-6a6efddab2e0">
          <symbol
             overflow="visible"
             id="id-30035228-3340-4a98-a39b-4f4ab9b187e8">
            <path
               style="stroke:none"
               d=""
               id="id-50031dd3-bb7f-489a-9542-3a2b38a7554a" />
          </symbol>
          <symbol
             overflow="visible"
             id="id-e6356b4f-4786-472f-a773-7e6930008b5f">
            <path
               style="stroke:none"
               d="m 4.53125,-4.984375 c 0,-0.65625 -0.171875,-2.046875 -1.1875,-2.046875 -1.390625,0 -2.921875,2.8125 -2.921875,5.09375 0,0.9375 0.28125,2.046875 1.1875,2.046875 1.40625,0 2.921875,-2.859375 2.921875,-5.09375 z M 1.46875,-3.625 C 1.640625,-4.25 1.84375,-5.046875 2.25,-5.765625 2.515625,-6.25 2.875,-6.8125 3.328125,-6.8125 c 0.484375,0 0.546875,0.640625 0.546875,1.203125 0,0.5 -0.078125,1 -0.3125,1.984375 z m 2,0.328125 C 3.359375,-2.84375 3.15625,-2 2.765625,-1.28125 c -0.34375,0.6875 -0.71875,1.171875 -1.15625,1.171875 -0.328125,0 -0.53125,-0.296875 -0.53125,-1.21875 0,-0.421875 0.0625,-1 0.3125,-1.96875 z m 0,0"
               id="id-44cbbf01-454f-473e-9c72-6d8b49c2b5a5" />
          </symbol>
          <symbol
             overflow="visible"
             id="id-27070716-3f1a-4aa4-8c9e-70b2108ded22">
            <path
               style="stroke:none"
               d=""
               id="id-eabdd2a0-1bb3-4ef6-822b-c9d6fb32c514" />
          </symbol>
          <symbol
             overflow="visible"
             id="id-3d2ed9b0-3fc3-4463-842e-66fb0594874f">
            <path
               style="stroke:none"
               d="m 1.90625,-2.328125 c 0.546875,0 0.9375,0.375 0.9375,1.125 0,0.859375 -0.515625,1.125 -0.90625,1.125 -0.28125,0 -0.90625,-0.078125 -1.1875,-0.5 0.328125,0 0.40625,-0.234375 0.40625,-0.390625 0,-0.21875 -0.171875,-0.375 -0.390625,-0.375 -0.1875,0 -0.390625,0.125 -0.390625,0.40625 0,0.65625 0.71875,1.078125 1.5625,1.078125 0.96875,0 1.640625,-0.65625 1.640625,-1.34375 0,-0.546875 -0.4375,-1.09375 -1.203125,-1.25 0.71875,-0.265625 0.984375,-0.78125 0.984375,-1.21875 0,-0.546875 -0.625,-0.953125 -1.40625,-0.953125 -0.765625,0 -1.359375,0.375 -1.359375,0.9375 0,0.234375 0.15625,0.359375 0.359375,0.359375 0.21875,0 0.359375,-0.15625 0.359375,-0.34375 0,-0.203125 -0.140625,-0.359375 -0.359375,-0.375 0.25,-0.296875 0.71875,-0.375 0.984375,-0.375 0.3125,0 0.75,0.15625 0.75,0.75 0,0.296875 -0.09375,0.625 -0.28125,0.828125 -0.21875,0.265625 -0.421875,0.28125 -0.765625,0.3125 -0.171875,0.015625 -0.1875,0.015625 -0.21875,0.015625 -0.015625,0 -0.078125,0.015625 -0.078125,0.09375 0,0.09375 0.0625,0.09375 0.1875,0.09375 z m 0,0"
               id="id-5b71ce13-0306-4e04-a70e-0c355bff9c81" />
          </symbol>
        </g>
      </defs>
      <g
         id="id-7ffa6ece-21d6-4c1a-bfcf-64c349970b69"
         transform="translate(-149.134,-127.734)">
        <g
           style="fill:#000000;fill-opacity:1"
           id="id-73ee75f6-e71a-43d8-bd1a-7b7414c14c92">
          <g
             transform="translate(148.712,134.765)"
             id="g1565">
            <path
               style="stroke:none"
               d="m 4.53125,-4.984375 c 0,-0.65625 -0.171875,-2.046875 -1.1875,-2.046875 -1.390625,0 -2.921875,2.8125 -2.921875,5.09375 0,0.9375 0.28125,2.046875 1.1875,2.046875 1.40625,0 2.921875,-2.859375 2.921875,-5.09375 z M 1.46875,-3.625 C 1.640625,-4.25 1.84375,-5.046875 2.25,-5.765625 2.515625,-6.25 2.875,-6.8125 3.328125,-6.8125 c 0.484375,0 0.546875,0.640625 0.546875,1.203125 0,0.5 -0.078125,1 -0.3125,1.984375 z m 2,0.328125 C 3.359375,-2.84375 3.15625,-2 2.765625,-1.28125 c -0.34375,0.6875 -0.71875,1.171875 -1.15625,1.171875 -0.328125,0 -0.53125,-0.296875 -0.53125,-1.21875 0,-0.421875 0.0625,-1 0.3125,-1.96875 z m 0,0"
               id="id-b7f993ff-0850-4784-bd09-ff7f06f73008" />
          </g>
        </g>
        <g
           style="fill:#000000;fill-opacity:1"
           id="id-03a455f6-5464-4899-8e63-638a155d847a">
          <g
             transform="translate(153.389,136.259)"
             id="g1569">
            <path
               style="stroke:none"
               d="m 1.90625,-2.328125 c 0.546875,0 0.9375,0.375 0.9375,1.125 0,0.859375 -0.515625,1.125 -0.90625,1.125 -0.28125,0 -0.90625,-0.078125 -1.1875,-0.5 0.328125,0 0.40625,-0.234375 0.40625,-0.390625 0,-0.21875 -0.171875,-0.375 -0.390625,-0.375 -0.1875,0 -0.390625,0.125 -0.390625,0.40625 0,0.65625 0.71875,1.078125 1.5625,1.078125 0.96875,0 1.640625,-0.65625 1.640625,-1.34375 0,-0.546875 -0.4375,-1.09375 -1.203125,-1.25 0.71875,-0.265625 0.984375,-0.78125 0.984375,-1.21875 0,-0.546875 -0.625,-0.953125 -1.40625,-0.953125 -0.765625,0 -1.359375,0.375 -1.359375,0.9375 0,0.234375 0.15625,0.359375 0.359375,0.359375 0.21875,0 0.359375,-0.15625 0.359375,-0.34375 0,-0.203125 -0.140625,-0.359375 -0.359375,-0.375 0.25,-0.296875 0.71875,-0.375 0.984375,-0.375 0.3125,0 0.75,0.15625 0.75,0.75 0,0.296875 -0.09375,0.625 -0.28125,0.828125 -0.21875,0.265625 -0.421875,0.28125 -0.765625,0.3125 -0.171875,0.015625 -0.1875,0.015625 -0.21875,0.015625 -0.015625,0 -0.078125,0.015625 -0.078125,0.09375 0,0.09375 0.0625,0.09375 0.1875,0.09375 z m 0,0"
               id="id-fc4181a3-97fc-4624-af46-70e66cfd7676" />
          </g>
        </g>
      </g>
    </g>
    <rect
       style="fill:#ff0012;fill-opacity:0.667829;stroke:none;stroke-width:0.264999;filter:url(#filter1035)"
       id="rect1595"
       width="10.583333"
       height="5.2916665"
       x="60.854164"
       y="23.8125"
       transform="matrix(1.2226765,0,0,1.0339513,134.73137,5.4650451)" />
    <path
       style="fill:none;stroke:#ff0000;stroke-width:0.560918;stroke-linecap:butt;stroke-linejoin:miter;stroke-miterlimit:4;stroke-dasharray:2.24368, 2.24368;stroke-dashoffset:0;stroke-opacity:1"
       d="M 122.72964,93.553378 V 33.368802"
       id="path1597"
       sodipodi:nodetypes="cc" />
    <path
       style="fill:none;stroke:#ff0000;stroke-width:0.486559;stroke-linecap:butt;stroke-linejoin:miter;stroke-miterlimit:4;stroke-dasharray:1.94623, 1.94623;stroke-dashoffset:0;stroke-opacity:1"
       d="M 122.72964,93.553378 100.95592,32.186171"
       id="path1599"
       sodipodi:nodetypes="cc" />
    <g
       transform="matrix(0.55679191,0,0,0.55679191,93.950153,21.968026)"
       ns4:version="1.3.0"
       ns4:texconverter="pdflatex"
       ns4:pdfconverter="inkscape"
       ns4:text="$\\theta_{-1}$"
       ns4:preamble="/home/ivo/.config/inkscape/extensions/textext/default_packages.tex"
       ns4:scale="1.2211830669712966"
       ns4:alignment="middle center"
       ns4:jacobian_sqrt="0.430807"
       id="g1635">
      <defs
         id="id-42a72198-4632-42b9-813a-201d849fa001">
        <g
           id="id-606a2b35-5b2e-47f9-95c6-62496bbc7981">
          <symbol
             overflow="visible"
             id="id-1a45fc49-c165-4ff0-87ef-843036237c59">
            <path
               style="stroke:none"
               d=""
               id="id-3de684fd-f22d-4a85-be20-529475969d4e" />
          </symbol>
          <symbol
             overflow="visible"
             id="id-fb872e5d-a7c7-4765-97a4-1acc21ed8e1b">
            <path
               style="stroke:none"
               d="m 4.53125,-4.984375 c 0,-0.65625 -0.171875,-2.046875 -1.1875,-2.046875 -1.390625,0 -2.921875,2.8125 -2.921875,5.09375 0,0.9375 0.28125,2.046875 1.1875,2.046875 1.40625,0 2.921875,-2.859375 2.921875,-5.09375 z M 1.46875,-3.625 C 1.640625,-4.25 1.84375,-5.046875 2.25,-5.765625 2.515625,-6.25 2.875,-6.8125 3.328125,-6.8125 c 0.484375,0 0.546875,0.640625 0.546875,1.203125 0,0.5 -0.078125,1 -0.3125,1.984375 z m 2,0.328125 C 3.359375,-2.84375 3.15625,-2 2.765625,-1.28125 c -0.34375,0.6875 -0.71875,1.171875 -1.15625,1.171875 -0.328125,0 -0.53125,-0.296875 -0.53125,-1.21875 0,-0.421875 0.0625,-1 0.3125,-1.96875 z m 0,0"
               id="id-aa7e2efe-2fed-41ca-b488-62dcacf2994e" />
          </symbol>
          <symbol
             overflow="visible"
             id="id-c66cf309-1c63-46a4-8134-36e6dc3a9651">
            <path
               style="stroke:none"
               d=""
               id="id-30c48397-a7e0-4126-a76b-4e720070275c" />
          </symbol>
          <symbol
             overflow="visible"
             id="id-320edce4-76c6-42b1-989d-da973c7126b2">
            <path
               style="stroke:none"
               d="m 5.1875,-1.578125 c 0.109375,0 0.28125,0 0.28125,-0.15625 0,-0.1875 -0.171875,-0.1875 -0.28125,-0.1875 H 1.03125 c -0.109375,0 -0.28125,0 -0.28125,0.171875 0,0.171875 0.15625,0.171875 0.28125,0.171875 z m 0,0"
               id="id-e7d52595-53b5-48e0-8c0b-5034ba370f24" />
          </symbol>
          <symbol
             overflow="visible"
             id="id-2664cd88-a3da-43fa-b5f9-4bbd791d9ac0">
            <path
               style="stroke:none"
               d=""
               id="id-0a1eb234-1212-42ba-97a1-bce43c3ced9d" />
          </symbol>
          <symbol
             overflow="visible"
             id="id-336eacdc-1d30-4351-823f-7cc8e6203aa7">
            <path
               style="stroke:none"
               d="m 2.328125,-4.4375 c 0,-0.1875 0,-0.1875 -0.203125,-0.1875 -0.453125,0.4375 -1.078125,0.4375 -1.359375,0.4375 v 0.25 c 0.15625,0 0.625,0 1,-0.1875 v 3.546875 c 0,0.234375 0,0.328125 -0.6875,0.328125 H 0.8125 V 0 c 0.125,0 0.984375,-0.03125 1.234375,-0.03125 0.21875,0 1.09375,0.03125 1.25,0.03125 V -0.25 H 3.03125 c -0.703125,0 -0.703125,-0.09375 -0.703125,-0.328125 z m 0,0"
               id="id-31bed45f-2076-41e7-bdd9-f869705076e5" />
          </symbol>
        </g>
      </defs>
      <g
         id="id-2f74c552-e197-474b-9430-83a68ef12b19"
         transform="translate(-149.134,-127.734)">
        <g
           style="fill:#000000;fill-opacity:1"
           id="id-fb0c77b3-514c-4af8-afbd-fc62bb8f7c6b">
          <g
             transform="translate(148.712,134.765)"
             id="g1756">
            <path
               style="stroke:none"
               d="m 4.53125,-4.984375 c 0,-0.65625 -0.171875,-2.046875 -1.1875,-2.046875 -1.390625,0 -2.921875,2.8125 -2.921875,5.09375 0,0.9375 0.28125,2.046875 1.1875,2.046875 1.40625,0 2.921875,-2.859375 2.921875,-5.09375 z M 1.46875,-3.625 C 1.640625,-4.25 1.84375,-5.046875 2.25,-5.765625 2.515625,-6.25 2.875,-6.8125 3.328125,-6.8125 c 0.484375,0 0.546875,0.640625 0.546875,1.203125 0,0.5 -0.078125,1 -0.3125,1.984375 z m 2,0.328125 C 3.359375,-2.84375 3.15625,-2 2.765625,-1.28125 c -0.34375,0.6875 -0.71875,1.171875 -1.15625,1.171875 -0.328125,0 -0.53125,-0.296875 -0.53125,-1.21875 0,-0.421875 0.0625,-1 0.3125,-1.96875 z m 0,0"
               id="id-fc5489d6-fe08-4b26-b37a-6a1116aa3d9f" />
          </g>
        </g>
        <g
           style="fill:#000000;fill-opacity:1"
           id="id-b6150c3f-ca86-4c5d-bd32-87083c068848">
          <g
             transform="translate(153.389,136.259)"
             id="g1760">
            <path
               style="stroke:none"
               d="m 5.1875,-1.578125 c 0.109375,0 0.28125,0 0.28125,-0.15625 0,-0.1875 -0.171875,-0.1875 -0.28125,-0.1875 H 1.03125 c -0.109375,0 -0.28125,0 -0.28125,0.171875 0,0.171875 0.15625,0.171875 0.28125,0.171875 z m 0,0"
               id="id-b671faa4-55f5-4e0d-8a69-f8631475257d" />
          </g>
        </g>
        <g
           style="fill:#000000;fill-opacity:1"
           id="id-cca15b40-bb04-4b0c-8299-83b85f47beff">
          <g
             transform="translate(159.616,136.259)"
             id="g1764">
            <path
               style="stroke:none"
               d="m 2.328125,-4.4375 c 0,-0.1875 0,-0.1875 -0.203125,-0.1875 -0.453125,0.4375 -1.078125,0.4375 -1.359375,0.4375 v 0.25 c 0.15625,0 0.625,0 1,-0.1875 v 3.546875 c 0,0.234375 0,0.328125 -0.6875,0.328125 H 0.8125 V 0 c 0.125,0 0.984375,-0.03125 1.234375,-0.03125 0.21875,0 1.09375,0.03125 1.25,0.03125 V -0.25 H 3.03125 c -0.703125,0 -0.703125,-0.09375 -0.703125,-0.328125 z m 0,0"
               id="id-27c8c8a9-bead-4f8e-b77f-96d03f2991e2" />
          </g>
        </g>
      </g>
    </g>
    <g
       transform="matrix(0.55679191,0,0,0.55679191,71.319884,21.967897)"
       ns4:version="1.3.0"
       ns4:texconverter="pdflatex"
       ns4:pdfconverter="inkscape"
       ns4:text="$\\theta_{-2}$"
       ns4:preamble="/home/ivo/.config/inkscape/extensions/textext/default_packages.tex"
       ns4:scale="1.2211830669712966"
       ns4:alignment="middle center"
       ns4:jacobian_sqrt="0.430807"
       id="g1845">
      <defs
         id="id-07829b97-1b84-4118-a03e-cba9afb9159f">
        <g
           id="id-2614f8d9-b400-4caf-b579-b8dc77f1f674">
          <symbol
             overflow="visible"
             id="id-bd9293e3-f125-45bc-9139-eb7ba4f2c40b">
            <path
               style="stroke:none"
               d=""
               id="id-cdffe3a6-34de-4afb-a672-25564b5ffbf0" />
          </symbol>
          <symbol
             overflow="visible"
             id="id-059fa205-21f2-436f-b3a1-dd029f4ce191">
            <path
               style="stroke:none"
               d="m 4.53125,-4.984375 c 0,-0.65625 -0.171875,-2.046875 -1.1875,-2.046875 -1.390625,0 -2.921875,2.8125 -2.921875,5.09375 0,0.9375 0.28125,2.046875 1.1875,2.046875 1.40625,0 2.921875,-2.859375 2.921875,-5.09375 z M 1.46875,-3.625 C 1.640625,-4.25 1.84375,-5.046875 2.25,-5.765625 2.515625,-6.25 2.875,-6.8125 3.328125,-6.8125 c 0.484375,0 0.546875,0.640625 0.546875,1.203125 0,0.5 -0.078125,1 -0.3125,1.984375 z m 2,0.328125 C 3.359375,-2.84375 3.15625,-2 2.765625,-1.28125 c -0.34375,0.6875 -0.71875,1.171875 -1.15625,1.171875 -0.328125,0 -0.53125,-0.296875 -0.53125,-1.21875 0,-0.421875 0.0625,-1 0.3125,-1.96875 z m 0,0"
               id="id-cfa6e1a2-ed4a-497d-a0bd-12b010ee65f4" />
          </symbol>
          <symbol
             overflow="visible"
             id="id-94197288-f190-45c0-bc96-b687c3794fd7">
            <path
               style="stroke:none"
               d=""
               id="id-460fd66a-61bd-4bb0-915f-2610e2290710" />
          </symbol>
          <symbol
             overflow="visible"
             id="id-5a303449-ba59-44f8-90d9-8e8f4d57e323">
            <path
               style="stroke:none"
               d="m 5.1875,-1.578125 c 0.109375,0 0.28125,0 0.28125,-0.15625 0,-0.1875 -0.171875,-0.1875 -0.28125,-0.1875 H 1.03125 c -0.109375,0 -0.28125,0 -0.28125,0.171875 0,0.171875 0.15625,0.171875 0.28125,0.171875 z m 0,0"
               id="id-9a6319c0-43e9-4497-8f54-2435c7e84a88" />
          </symbol>
          <symbol
             overflow="visible"
             id="id-14f9e925-58d0-4214-9547-0aa21fffd4c1">
            <path
               style="stroke:none"
               d=""
               id="id-6bef2c8c-7d0d-4e2b-822d-d2ae8ab0fc56" />
          </symbol>
          <symbol
             overflow="visible"
             id="id-6172bc3a-32f7-40bb-a7f7-a946b662fb88">
            <path
               style="stroke:none"
               d="M 3.515625,-1.265625 H 3.28125 c -0.015625,0.15625 -0.09375,0.5625 -0.1875,0.625 C 3.046875,-0.59375 2.515625,-0.59375 2.40625,-0.59375 H 1.125 c 0.734375,-0.640625 0.984375,-0.84375 1.390625,-1.171875 0.515625,-0.40625 1,-0.84375 1,-1.5 0,-0.84375 -0.734375,-1.359375 -1.625,-1.359375 -0.859375,0 -1.453125,0.609375 -1.453125,1.25 0,0.34375 0.296875,0.390625 0.375,0.390625 0.15625,0 0.359375,-0.125 0.359375,-0.375 0,-0.125 -0.046875,-0.375 -0.40625,-0.375 C 0.984375,-4.21875 1.453125,-4.375 1.78125,-4.375 c 0.703125,0 1.0625,0.546875 1.0625,1.109375 0,0.609375 -0.4375,1.078125 -0.65625,1.328125 L 0.515625,-0.265625 C 0.4375,-0.203125 0.4375,-0.1875 0.4375,0 h 2.875 z m 0,0"
               id="id-a5acb81f-658a-408c-b9a7-8e66ff67cb0a" />
          </symbol>
        </g>
      </defs>
      <g
         id="id-b59245c7-ade3-46b2-bc0f-07866ee76562"
         transform="translate(-149.134,-127.734)">
        <g
           style="fill:#000000;fill-opacity:1"
           id="id-54c41f97-4401-48ac-b3d8-bb9d45c0a4ff">
          <g
             transform="translate(148.712,134.765)"
             id="g1991">
            <path
               style="stroke:none"
               d="m 4.53125,-4.984375 c 0,-0.65625 -0.171875,-2.046875 -1.1875,-2.046875 -1.390625,0 -2.921875,2.8125 -2.921875,5.09375 0,0.9375 0.28125,2.046875 1.1875,2.046875 1.40625,0 2.921875,-2.859375 2.921875,-5.09375 z M 1.46875,-3.625 C 1.640625,-4.25 1.84375,-5.046875 2.25,-5.765625 2.515625,-6.25 2.875,-6.8125 3.328125,-6.8125 c 0.484375,0 0.546875,0.640625 0.546875,1.203125 0,0.5 -0.078125,1 -0.3125,1.984375 z m 2,0.328125 C 3.359375,-2.84375 3.15625,-2 2.765625,-1.28125 c -0.34375,0.6875 -0.71875,1.171875 -1.15625,1.171875 -0.328125,0 -0.53125,-0.296875 -0.53125,-1.21875 0,-0.421875 0.0625,-1 0.3125,-1.96875 z m 0,0"
               id="id-1eabf501-1777-43d0-9cf2-f48b26289438" />
          </g>
        </g>
        <g
           style="fill:#000000;fill-opacity:1"
           id="id-abff333d-7938-4d5c-8517-0119c5e31d8b">
          <g
             transform="translate(153.389,136.259)"
             id="g1995">
            <path
               style="stroke:none"
               d="m 5.1875,-1.578125 c 0.109375,0 0.28125,0 0.28125,-0.15625 0,-0.1875 -0.171875,-0.1875 -0.28125,-0.1875 H 1.03125 c -0.109375,0 -0.28125,0 -0.28125,0.171875 0,0.171875 0.15625,0.171875 0.28125,0.171875 z m 0,0"
               id="id-6913e075-712d-46d0-8ae3-a2b745d6bd28" />
          </g>
        </g>
        <g
           style="fill:#000000;fill-opacity:1"
           id="id-5b7fc6fb-909a-45d3-b7e6-35417646d65f">
          <g
             transform="translate(159.616,136.259)"
             id="g1999">
            <path
               style="stroke:none"
               d="M 3.515625,-1.265625 H 3.28125 c -0.015625,0.15625 -0.09375,0.5625 -0.1875,0.625 C 3.046875,-0.59375 2.515625,-0.59375 2.40625,-0.59375 H 1.125 c 0.734375,-0.640625 0.984375,-0.84375 1.390625,-1.171875 0.515625,-0.40625 1,-0.84375 1,-1.5 0,-0.84375 -0.734375,-1.359375 -1.625,-1.359375 -0.859375,0 -1.453125,0.609375 -1.453125,1.25 0,0.34375 0.296875,0.390625 0.375,0.390625 0.15625,0 0.359375,-0.125 0.359375,-0.375 0,-0.125 -0.046875,-0.375 -0.40625,-0.375 C 0.984375,-4.21875 1.453125,-4.375 1.78125,-4.375 c 0.703125,0 1.0625,0.546875 1.0625,1.109375 0,0.609375 -0.4375,1.078125 -0.65625,1.328125 L 0.515625,-0.265625 C 0.4375,-0.203125 0.4375,-0.1875 0.4375,0 h 2.875 z m 0,0"
               id="id-440609d0-22e6-43bf-87ac-28cfa3fe7537" />
          </g>
        </g>
      </g>
    </g>
    <path
       style="fill:none;stroke:#ff0000;stroke-width:0.486559;stroke-linecap:butt;stroke-linejoin:miter;stroke-miterlimit:4;stroke-dasharray:1.94623, 1.94623;stroke-dashoffset:0;stroke-opacity:1"
       d="M 122.72964,93.553378 76.96673,32.767531"
       id="path2032"
       sodipodi:nodetypes="cc" />
    <path
       style="fill:none;stroke:#000000;stroke-width:0.486559;stroke-linecap:butt;stroke-linejoin:miter;stroke-miterlimit:4;stroke-dasharray:1.94623, 1.94623;stroke-dashoffset:0;stroke-opacity:1"
       d="M 122.72964,93.553378 88.72067,33.237098"
       id="path2034"
       sodipodi:nodetypes="cc" />
    <path
       style="fill:none;stroke:#000000;stroke-width:0.486559;stroke-linecap:butt;stroke-linejoin:miter;stroke-miterlimit:4;stroke-dasharray:1.94623, 1.94623;stroke-dashoffset:0;stroke-opacity:1"
       d="M 122.72964,93.553378 135.36058,32.97825"
       id="path2036"
       sodipodi:nodetypes="cc" />
    <path
       style="fill:none;stroke:#000000;stroke-width:0.486559;stroke-linecap:butt;stroke-linejoin:miter;stroke-miterlimit:4;stroke-dasharray:1.94623, 1.94623;stroke-dashoffset:0;stroke-opacity:1"
       d="M 122.72964,93.553378 158.45076,33.47369"
       id="path2038"
       sodipodi:nodetypes="cc" />
    <path
       style="fill:none;stroke:#000000;stroke-width:0.486559;stroke-linecap:butt;stroke-linejoin:miter;stroke-miterlimit:4;stroke-dasharray:1.94623, 1.94623;stroke-dashoffset:0;stroke-opacity:1"
       d="M 122.72964,93.553378 181.36697,32.841174"
       id="path2040"
       sodipodi:nodetypes="cc" />
    <path
       style="fill:none;stroke:#000000;stroke-width:0.486559;stroke-linecap:butt;stroke-linejoin:miter;stroke-miterlimit:4;stroke-dasharray:1.94623, 1.94623;stroke-dashoffset:0;stroke-opacity:1"
       d="M 122.72964,93.553378 110.94246,32.948918"
       id="path2042"
       sodipodi:nodetypes="cc" />
    <g
       transform="matrix(0.55679191,0,0,0.55679191,81.388549,7.0381759)"
       ns4:version="1.3.0"
       ns4:texconverter="pdflatex"
       ns4:pdfconverter="inkscape"
       ns4:text="$\\theta_{-3/2}$"
       ns4:preamble="/home/ivo/.config/inkscape/extensions/textext/default_packages.tex"
       ns4:scale="1.2211830669712966"
       ns4:alignment="middle center"
       ns4:jacobian_sqrt="0.430807"
       id="g2092">
      <defs
         id="id-59bd69cd-eec4-4638-9738-3160cc6d10e7">
        <g
           id="id-d7191e0b-3434-4022-a30f-a888ee171e00">
          <symbol
             overflow="visible"
             id="id-d2acd0d0-c439-42c5-bfda-d3c0d26cc2b7">
            <path
               style="stroke:none"
               d=""
               id="id-4ad7a2ed-4264-496c-8b64-7bf232c31df7" />
          </symbol>
          <symbol
             overflow="visible"
             id="id-65b7696a-b0f1-4f0c-95d1-63a96b3d534a">
            <path
               style="stroke:none"
               d="m 4.53125,-4.984375 c 0,-0.65625 -0.171875,-2.046875 -1.1875,-2.046875 -1.390625,0 -2.921875,2.8125 -2.921875,5.09375 0,0.9375 0.28125,2.046875 1.1875,2.046875 1.40625,0 2.921875,-2.859375 2.921875,-5.09375 z M 1.46875,-3.625 C 1.640625,-4.25 1.84375,-5.046875 2.25,-5.765625 2.515625,-6.25 2.875,-6.8125 3.328125,-6.8125 c 0.484375,0 0.546875,0.640625 0.546875,1.203125 0,0.5 -0.078125,1 -0.3125,1.984375 z m 2,0.328125 C 3.359375,-2.84375 3.15625,-2 2.765625,-1.28125 c -0.34375,0.6875 -0.71875,1.171875 -1.15625,1.171875 -0.328125,0 -0.53125,-0.296875 -0.53125,-1.21875 0,-0.421875 0.0625,-1 0.3125,-1.96875 z m 0,0"
               id="id-6e22db52-9a77-496f-bfca-def7fe5c7a80" />
          </symbol>
          <symbol
             overflow="visible"
             id="id-83a0000b-3c5a-4a4b-a1ba-73e3b6781116">
            <path
               style="stroke:none"
               d=""
               id="id-b15c44e2-cbe3-4726-834d-118933b5d5de" />
          </symbol>
          <symbol
             overflow="visible"
             id="id-8c385bc4-57f8-4108-8381-55848fd0779e">
            <path
               style="stroke:none"
               d="m 5.1875,-1.578125 c 0.109375,0 0.28125,0 0.28125,-0.15625 0,-0.1875 -0.171875,-0.1875 -0.28125,-0.1875 H 1.03125 c -0.109375,0 -0.28125,0 -0.28125,0.171875 0,0.171875 0.15625,0.171875 0.28125,0.171875 z m 0,0"
               id="id-6e4e9115-5b74-4362-9f36-a4c670396c03" />
          </symbol>
          <symbol
             overflow="visible"
             id="id-197795dc-857e-489e-9828-0a40d2f9c806">
            <path
               style="stroke:none"
               d=""
               id="id-9e6d1707-cac1-4ea9-9c5f-1ee7385864f8" />
          </symbol>
          <symbol
             overflow="visible"
             id="id-7fcba1d7-9853-4e4f-a784-4f635a1582b8">
            <path
               style="stroke:none"
               d="m 1.90625,-2.328125 c 0.546875,0 0.9375,0.375 0.9375,1.125 0,0.859375 -0.515625,1.125 -0.90625,1.125 -0.28125,0 -0.90625,-0.078125 -1.1875,-0.5 0.328125,0 0.40625,-0.234375 0.40625,-0.390625 0,-0.21875 -0.171875,-0.375 -0.390625,-0.375 -0.1875,0 -0.390625,0.125 -0.390625,0.40625 0,0.65625 0.71875,1.078125 1.5625,1.078125 0.96875,0 1.640625,-0.65625 1.640625,-1.34375 0,-0.546875 -0.4375,-1.09375 -1.203125,-1.25 0.71875,-0.265625 0.984375,-0.78125 0.984375,-1.21875 0,-0.546875 -0.625,-0.953125 -1.40625,-0.953125 -0.765625,0 -1.359375,0.375 -1.359375,0.9375 0,0.234375 0.15625,0.359375 0.359375,0.359375 0.21875,0 0.359375,-0.15625 0.359375,-0.34375 0,-0.203125 -0.140625,-0.359375 -0.359375,-0.375 0.25,-0.296875 0.71875,-0.375 0.984375,-0.375 0.3125,0 0.75,0.15625 0.75,0.75 0,0.296875 -0.09375,0.625 -0.28125,0.828125 -0.21875,0.265625 -0.421875,0.28125 -0.765625,0.3125 -0.171875,0.015625 -0.1875,0.015625 -0.21875,0.015625 -0.015625,0 -0.078125,0.015625 -0.078125,0.09375 0,0.09375 0.0625,0.09375 0.1875,0.09375 z m 0,0"
               id="id-b3b28d75-d6c6-4ea6-83ab-f1befd8dc72f" />
          </symbol>
          <symbol
             overflow="visible"
             id="id-390ae296-33ad-4ba7-8e15-5fa4660aaf54">
            <path
               style="stroke:none"
               d="M 3.515625,-1.265625 H 3.28125 c -0.015625,0.15625 -0.09375,0.5625 -0.1875,0.625 C 3.046875,-0.59375 2.515625,-0.59375 2.40625,-0.59375 H 1.125 c 0.734375,-0.640625 0.984375,-0.84375 1.390625,-1.171875 0.515625,-0.40625 1,-0.84375 1,-1.5 0,-0.84375 -0.734375,-1.359375 -1.625,-1.359375 -0.859375,0 -1.453125,0.609375 -1.453125,1.25 0,0.34375 0.296875,0.390625 0.375,0.390625 0.15625,0 0.359375,-0.125 0.359375,-0.375 0,-0.125 -0.046875,-0.375 -0.40625,-0.375 C 0.984375,-4.21875 1.453125,-4.375 1.78125,-4.375 c 0.703125,0 1.0625,0.546875 1.0625,1.109375 0,0.609375 -0.4375,1.078125 -0.65625,1.328125 L 0.515625,-0.265625 C 0.4375,-0.203125 0.4375,-0.1875 0.4375,0 h 2.875 z m 0,0"
               id="id-f6dc3bfb-daa4-4ae4-ab4f-9e1549439c9c" />
          </symbol>
          <symbol
             overflow="visible"
             id="id-9e597efa-ce16-4de5-8bc1-d0fabc4613d2">
            <path
               style="stroke:none"
               d=""
               id="id-da803670-2d28-4977-9dfd-c83a21729ae2" />
          </symbol>
          <symbol
             overflow="visible"
             id="id-7e34fd55-3648-4f52-a54a-f72238801ea6">
            <path
               style="stroke:none"
               d="m 3.484375,-4.921875 c 0.046875,-0.09375 0.046875,-0.109375 0.046875,-0.125 0,-0.109375 -0.09375,-0.171875 -0.171875,-0.171875 -0.109375,0 -0.140625,0.078125 -0.1875,0.171875 L 0.578125,1.4375 C 0.53125,1.53125 0.53125,1.546875 0.53125,1.5625 c 0,0.109375 0.09375,0.171875 0.171875,0.171875 0.125,0 0.15625,-0.078125 0.1875,-0.171875 z m 0,0"
               id="id-78b11141-0138-4215-bf03-e36302e73c62" />
          </symbol>
        </g>
      </defs>
      <g
         id="id-d810ef59-c16e-4e98-b209-d1c255645dc2"
         transform="translate(-149.134,-127.734)">
        <g
           style="fill:#000000;fill-opacity:1"
           id="id-5fbff85f-26de-4331-be8e-0bdf72542a57">
          <g
             transform="translate(148.712,134.765)"
             id="g2275">
            <path
               style="stroke:none"
               d="m 4.53125,-4.984375 c 0,-0.65625 -0.171875,-2.046875 -1.1875,-2.046875 -1.390625,0 -2.921875,2.8125 -2.921875,5.09375 0,0.9375 0.28125,2.046875 1.1875,2.046875 1.40625,0 2.921875,-2.859375 2.921875,-5.09375 z M 1.46875,-3.625 C 1.640625,-4.25 1.84375,-5.046875 2.25,-5.765625 2.515625,-6.25 2.875,-6.8125 3.328125,-6.8125 c 0.484375,0 0.546875,0.640625 0.546875,1.203125 0,0.5 -0.078125,1 -0.3125,1.984375 z m 2,0.328125 C 3.359375,-2.84375 3.15625,-2 2.765625,-1.28125 c -0.34375,0.6875 -0.71875,1.171875 -1.15625,1.171875 -0.328125,0 -0.53125,-0.296875 -0.53125,-1.21875 0,-0.421875 0.0625,-1 0.3125,-1.96875 z m 0,0"
               id="id-32bf9e76-e325-4dde-8b71-8107054dcee5" />
          </g>
        </g>
        <g
           style="fill:#000000;fill-opacity:1"
           id="id-e166027d-21b1-4043-b534-2a2af7b8aef2">
          <g
             transform="translate(153.389,136.563)"
             id="g2279">
            <path
               style="stroke:none"
               d="m 5.1875,-1.578125 c 0.109375,0 0.28125,0 0.28125,-0.15625 0,-0.1875 -0.171875,-0.1875 -0.28125,-0.1875 H 1.03125 c -0.109375,0 -0.28125,0 -0.28125,0.171875 0,0.171875 0.15625,0.171875 0.28125,0.171875 z m 0,0"
               id="id-5627eeb8-2b77-4c93-bd35-254bbef7db88" />
          </g>
        </g>
        <g
           style="fill:#000000;fill-opacity:1"
           id="id-7dd0972c-05a1-4641-9c93-a8c0520b8876">
          <g
             transform="translate(159.616,136.563)"
             id="g2283">
            <path
               style="stroke:none"
               d="m 1.90625,-2.328125 c 0.546875,0 0.9375,0.375 0.9375,1.125 0,0.859375 -0.515625,1.125 -0.90625,1.125 -0.28125,0 -0.90625,-0.078125 -1.1875,-0.5 0.328125,0 0.40625,-0.234375 0.40625,-0.390625 0,-0.21875 -0.171875,-0.375 -0.390625,-0.375 -0.1875,0 -0.390625,0.125 -0.390625,0.40625 0,0.65625 0.71875,1.078125 1.5625,1.078125 0.96875,0 1.640625,-0.65625 1.640625,-1.34375 0,-0.546875 -0.4375,-1.09375 -1.203125,-1.25 0.71875,-0.265625 0.984375,-0.78125 0.984375,-1.21875 0,-0.546875 -0.625,-0.953125 -1.40625,-0.953125 -0.765625,0 -1.359375,0.375 -1.359375,0.9375 0,0.234375 0.15625,0.359375 0.359375,0.359375 0.21875,0 0.359375,-0.15625 0.359375,-0.34375 0,-0.203125 -0.140625,-0.359375 -0.359375,-0.375 0.25,-0.296875 0.71875,-0.375 0.984375,-0.375 0.3125,0 0.75,0.15625 0.75,0.75 0,0.296875 -0.09375,0.625 -0.28125,0.828125 -0.21875,0.265625 -0.421875,0.28125 -0.765625,0.3125 -0.171875,0.015625 -0.1875,0.015625 -0.21875,0.015625 -0.015625,0 -0.078125,0.015625 -0.078125,0.09375 0,0.09375 0.0625,0.09375 0.1875,0.09375 z m 0,0"
               id="id-16f1223c-9a88-4856-854f-3aa3fad91f15" />
          </g>
        </g>
        <g
           style="fill:#000000;fill-opacity:1"
           id="id-252b39bb-f215-46af-8c8a-8eb213adf2cd">
          <g
             transform="translate(163.587,136.563)"
             id="g2287">
            <path
               style="stroke:none"
               d="m 3.484375,-4.921875 c 0.046875,-0.09375 0.046875,-0.109375 0.046875,-0.125 0,-0.109375 -0.09375,-0.171875 -0.171875,-0.171875 -0.109375,0 -0.140625,0.078125 -0.1875,0.171875 L 0.578125,1.4375 C 0.53125,1.53125 0.53125,1.546875 0.53125,1.5625 c 0,0.109375 0.09375,0.171875 0.171875,0.171875 0.125,0 0.15625,-0.078125 0.1875,-0.171875 z m 0,0"
               id="id-fef02810-bcf2-495f-889d-4ddcff17536e" />
          </g>
        </g>
        <g
           style="fill:#000000;fill-opacity:1"
           id="id-53a4f29b-5483-462c-b4ef-f040828878e8">
          <g
             transform="translate(167.669,136.563)"
             id="g2291">
            <path
               style="stroke:none"
               d="M 3.515625,-1.265625 H 3.28125 c -0.015625,0.15625 -0.09375,0.5625 -0.1875,0.625 C 3.046875,-0.59375 2.515625,-0.59375 2.40625,-0.59375 H 1.125 c 0.734375,-0.640625 0.984375,-0.84375 1.390625,-1.171875 0.515625,-0.40625 1,-0.84375 1,-1.5 0,-0.84375 -0.734375,-1.359375 -1.625,-1.359375 -0.859375,0 -1.453125,0.609375 -1.453125,1.25 0,0.34375 0.296875,0.390625 0.375,0.390625 0.15625,0 0.359375,-0.125 0.359375,-0.375 0,-0.125 -0.046875,-0.375 -0.40625,-0.375 C 0.984375,-4.21875 1.453125,-4.375 1.78125,-4.375 c 0.703125,0 1.0625,0.546875 1.0625,1.109375 0,0.609375 -0.4375,1.078125 -0.65625,1.328125 L 0.515625,-0.265625 C 0.4375,-0.203125 0.4375,-0.1875 0.4375,0 h 2.875 z m 0,0"
               id="id-9c5acfa5-5abf-40ad-8a1a-960442c62c0e" />
          </g>
        </g>
      </g>
    </g>
    <g
       transform="matrix(0.55679191,0,0,0.55679191,103.95764,7.038038)"
       ns4:version="1.3.0"
       ns4:texconverter="pdflatex"
       ns4:pdfconverter="inkscape"
       ns4:text="$\\theta_{-1/2}$"
       ns4:preamble="/home/ivo/.config/inkscape/extensions/textext/default_packages.tex"
       ns4:scale="1.2211830669712966"
       ns4:alignment="middle center"
       ns4:jacobian_sqrt="0.430807"
       id="g2408">
      <defs
         id="id-866a027a-6539-40d4-ba49-f9b10cdc8af0">
        <g
           id="id-ece29468-de13-4428-bdd7-dbafef5ed3b5">
          <symbol
             overflow="visible"
             id="id-1685cb25-cc32-47cc-be29-e9beeb499d09">
            <path
               style="stroke:none"
               d=""
               id="id-b3ece6c4-e466-4772-b780-8224cdba8d36" />
          </symbol>
          <symbol
             overflow="visible"
             id="id-fd0bd4de-5d73-4ec2-8f6d-958e373683a1">
            <path
               style="stroke:none"
               d="m 4.53125,-4.984375 c 0,-0.65625 -0.171875,-2.046875 -1.1875,-2.046875 -1.390625,0 -2.921875,2.8125 -2.921875,5.09375 0,0.9375 0.28125,2.046875 1.1875,2.046875 1.40625,0 2.921875,-2.859375 2.921875,-5.09375 z M 1.46875,-3.625 C 1.640625,-4.25 1.84375,-5.046875 2.25,-5.765625 2.515625,-6.25 2.875,-6.8125 3.328125,-6.8125 c 0.484375,0 0.546875,0.640625 0.546875,1.203125 0,0.5 -0.078125,1 -0.3125,1.984375 z m 2,0.328125 C 3.359375,-2.84375 3.15625,-2 2.765625,-1.28125 c -0.34375,0.6875 -0.71875,1.171875 -1.15625,1.171875 -0.328125,0 -0.53125,-0.296875 -0.53125,-1.21875 0,-0.421875 0.0625,-1 0.3125,-1.96875 z m 0,0"
               id="id-ceb4422c-2606-4b26-9208-e3077439dc09" />
          </symbol>
          <symbol
             overflow="visible"
             id="id-c378c6c5-a62e-4b02-a7a6-bb8b1081a539">
            <path
               style="stroke:none"
               d=""
               id="id-7ffc8ede-eb88-41fb-ade3-0484079799bb" />
          </symbol>
          <symbol
             overflow="visible"
             id="id-6d54f55b-d751-43c0-ae74-dd7355094479">
            <path
               style="stroke:none"
               d="m 5.1875,-1.578125 c 0.109375,0 0.28125,0 0.28125,-0.15625 0,-0.1875 -0.171875,-0.1875 -0.28125,-0.1875 H 1.03125 c -0.109375,0 -0.28125,0 -0.28125,0.171875 0,0.171875 0.15625,0.171875 0.28125,0.171875 z m 0,0"
               id="id-196df614-4254-462a-95d8-791368605729" />
          </symbol>
          <symbol
             overflow="visible"
             id="id-644019c8-0650-4026-9062-21dd31c78ff2">
            <path
               style="stroke:none"
               d=""
               id="id-8f09d1bf-9687-4546-820a-7a2c4e285f40" />
          </symbol>
          <symbol
             overflow="visible"
             id="id-d433874c-5142-415c-b4ea-b939c59bda50">
            <path
               style="stroke:none"
               d="m 2.328125,-4.4375 c 0,-0.1875 0,-0.1875 -0.203125,-0.1875 -0.453125,0.4375 -1.078125,0.4375 -1.359375,0.4375 v 0.25 c 0.15625,0 0.625,0 1,-0.1875 v 3.546875 c 0,0.234375 0,0.328125 -0.6875,0.328125 H 0.8125 V 0 c 0.125,0 0.984375,-0.03125 1.234375,-0.03125 0.21875,0 1.09375,0.03125 1.25,0.03125 V -0.25 H 3.03125 c -0.703125,0 -0.703125,-0.09375 -0.703125,-0.328125 z m 0,0"
               id="id-b73ee0f8-8bde-45ad-952f-269f55bfffcd" />
          </symbol>
          <symbol
             overflow="visible"
             id="id-7c94354e-004d-4692-87a0-d170ee5e576a">
            <path
               style="stroke:none"
               d="M 3.515625,-1.265625 H 3.28125 c -0.015625,0.15625 -0.09375,0.5625 -0.1875,0.625 C 3.046875,-0.59375 2.515625,-0.59375 2.40625,-0.59375 H 1.125 c 0.734375,-0.640625 0.984375,-0.84375 1.390625,-1.171875 0.515625,-0.40625 1,-0.84375 1,-1.5 0,-0.84375 -0.734375,-1.359375 -1.625,-1.359375 -0.859375,0 -1.453125,0.609375 -1.453125,1.25 0,0.34375 0.296875,0.390625 0.375,0.390625 0.15625,0 0.359375,-0.125 0.359375,-0.375 0,-0.125 -0.046875,-0.375 -0.40625,-0.375 C 0.984375,-4.21875 1.453125,-4.375 1.78125,-4.375 c 0.703125,0 1.0625,0.546875 1.0625,1.109375 0,0.609375 -0.4375,1.078125 -0.65625,1.328125 L 0.515625,-0.265625 C 0.4375,-0.203125 0.4375,-0.1875 0.4375,0 h 2.875 z m 0,0"
               id="id-fbd0c5b5-3774-4985-822d-343f50bc526d" />
          </symbol>
          <symbol
             overflow="visible"
             id="id-6283eedb-04dd-4989-98db-07b59659b766">
            <path
               style="stroke:none"
               d=""
               id="id-0c291a3a-f736-41f0-b02d-a8511ebe39fc" />
          </symbol>
          <symbol
             overflow="visible"
             id="id-7c08eafe-d2bc-472f-af76-4df485b5e94a">
            <path
               style="stroke:none"
               d="m 3.484375,-4.921875 c 0.046875,-0.09375 0.046875,-0.109375 0.046875,-0.125 0,-0.109375 -0.09375,-0.171875 -0.171875,-0.171875 -0.109375,0 -0.140625,0.078125 -0.1875,0.171875 L 0.578125,1.4375 C 0.53125,1.53125 0.53125,1.546875 0.53125,1.5625 c 0,0.109375 0.09375,0.171875 0.171875,0.171875 0.125,0 0.15625,-0.078125 0.1875,-0.171875 z m 0,0"
               id="id-f2e4713d-eafb-46bf-8d1a-0f3ffc4c91f5" />
          </symbol>
        </g>
      </defs>
      <g
         id="id-3bd8dead-4e0c-47b0-825b-71d173d2deae"
         transform="translate(-149.134,-127.734)">
        <g
           style="fill:#000000;fill-opacity:1"
           id="id-66c636e7-692c-4c49-a859-8925aa878668">
          <g
             transform="translate(148.712,134.765)"
             id="g2628">
            <path
               style="stroke:none"
               d="m 4.53125,-4.984375 c 0,-0.65625 -0.171875,-2.046875 -1.1875,-2.046875 -1.390625,0 -2.921875,2.8125 -2.921875,5.09375 0,0.9375 0.28125,2.046875 1.1875,2.046875 1.40625,0 2.921875,-2.859375 2.921875,-5.09375 z M 1.46875,-3.625 C 1.640625,-4.25 1.84375,-5.046875 2.25,-5.765625 2.515625,-6.25 2.875,-6.8125 3.328125,-6.8125 c 0.484375,0 0.546875,0.640625 0.546875,1.203125 0,0.5 -0.078125,1 -0.3125,1.984375 z m 2,0.328125 C 3.359375,-2.84375 3.15625,-2 2.765625,-1.28125 c -0.34375,0.6875 -0.71875,1.171875 -1.15625,1.171875 -0.328125,0 -0.53125,-0.296875 -0.53125,-1.21875 0,-0.421875 0.0625,-1 0.3125,-1.96875 z m 0,0"
               id="id-a335ab6d-189c-4007-a230-f7908b62fb39" />
          </g>
        </g>
        <g
           style="fill:#000000;fill-opacity:1"
           id="id-dc3f4e94-54f2-4c69-99e9-2047bfec6414">
          <g
             transform="translate(153.389,136.563)"
             id="g2632">
            <path
               style="stroke:none"
               d="m 5.1875,-1.578125 c 0.109375,0 0.28125,0 0.28125,-0.15625 0,-0.1875 -0.171875,-0.1875 -0.28125,-0.1875 H 1.03125 c -0.109375,0 -0.28125,0 -0.28125,0.171875 0,0.171875 0.15625,0.171875 0.28125,0.171875 z m 0,0"
               id="id-8b51b0d5-0307-4126-9294-a1f32c0c9783" />
          </g>
        </g>
        <g
           style="fill:#000000;fill-opacity:1"
           id="id-7844d7fd-5170-4931-84fc-d22f905b9cf6">
          <g
             transform="translate(159.616,136.563)"
             id="g2636">
            <path
               style="stroke:none"
               d="m 2.328125,-4.4375 c 0,-0.1875 0,-0.1875 -0.203125,-0.1875 -0.453125,0.4375 -1.078125,0.4375 -1.359375,0.4375 v 0.25 c 0.15625,0 0.625,0 1,-0.1875 v 3.546875 c 0,0.234375 0,0.328125 -0.6875,0.328125 H 0.8125 V 0 c 0.125,0 0.984375,-0.03125 1.234375,-0.03125 0.21875,0 1.09375,0.03125 1.25,0.03125 V -0.25 H 3.03125 c -0.703125,0 -0.703125,-0.09375 -0.703125,-0.328125 z m 0,0"
               id="id-d036714e-dcee-4dfe-ad6e-6b8abf916675" />
          </g>
        </g>
        <g
           style="fill:#000000;fill-opacity:1"
           id="id-32a41914-9a5c-46a8-b866-162bae99c1f9">
          <g
             transform="translate(163.587,136.563)"
             id="g2640">
            <path
               style="stroke:none"
               d="m 3.484375,-4.921875 c 0.046875,-0.09375 0.046875,-0.109375 0.046875,-0.125 0,-0.109375 -0.09375,-0.171875 -0.171875,-0.171875 -0.109375,0 -0.140625,0.078125 -0.1875,0.171875 L 0.578125,1.4375 C 0.53125,1.53125 0.53125,1.546875 0.53125,1.5625 c 0,0.109375 0.09375,0.171875 0.171875,0.171875 0.125,0 0.15625,-0.078125 0.1875,-0.171875 z m 0,0"
               id="id-a549b0b2-2a82-4d35-92ee-aa24624630dd" />
          </g>
        </g>
        <g
           style="fill:#000000;fill-opacity:1"
           id="id-f582cfce-826a-4be1-b5ad-b0287219a7fa">
          <g
             transform="translate(167.669,136.563)"
             id="g2644">
            <path
               style="stroke:none"
               d="M 3.515625,-1.265625 H 3.28125 c -0.015625,0.15625 -0.09375,0.5625 -0.1875,0.625 C 3.046875,-0.59375 2.515625,-0.59375 2.40625,-0.59375 H 1.125 c 0.734375,-0.640625 0.984375,-0.84375 1.390625,-1.171875 0.515625,-0.40625 1,-0.84375 1,-1.5 0,-0.84375 -0.734375,-1.359375 -1.625,-1.359375 -0.859375,0 -1.453125,0.609375 -1.453125,1.25 0,0.34375 0.296875,0.390625 0.375,0.390625 0.15625,0 0.359375,-0.125 0.359375,-0.375 0,-0.125 -0.046875,-0.375 -0.40625,-0.375 C 0.984375,-4.21875 1.453125,-4.375 1.78125,-4.375 c 0.703125,0 1.0625,0.546875 1.0625,1.109375 0,0.609375 -0.4375,1.078125 -0.65625,1.328125 L 0.515625,-0.265625 C 0.4375,-0.203125 0.4375,-0.1875 0.4375,0 h 2.875 z m 0,0"
               id="id-c82729cd-5f91-46f3-8272-8bc9d9b4a664" />
          </g>
        </g>
      </g>
    </g>
    <g
       transform="matrix(0.55679191,0,0,0.55679191,132.36369,7.0378958)"
       ns4:version="1.3.0"
       ns4:texconverter="pdflatex"
       ns4:pdfconverter="inkscape"
       ns4:text="$\\theta_{1/2}$"
       ns4:preamble="/home/ivo/.config/inkscape/extensions/textext/default_packages.tex"
       ns4:scale="1.2211830669712966"
       ns4:alignment="middle center"
       ns4:jacobian_sqrt="0.430807"
       id="g2761">
      <defs
         id="id-52564f6d-bff9-4978-b530-dd4cb9fe9714">
        <g
           id="id-d106e44d-19de-48c6-8b9a-0feac52506f5">
          <symbol
             overflow="visible"
             id="id-eb28005b-fef2-45a1-af2a-874ed78d5707">
            <path
               style="stroke:none"
               d=""
               id="id-dc457e47-232e-40b7-ac5d-2866c46010ca" />
          </symbol>
          <symbol
             overflow="visible"
             id="id-6b79bdb0-132b-4fcc-aca8-02762098418e">
            <path
               style="stroke:none"
               d="m 4.53125,-4.984375 c 0,-0.65625 -0.171875,-2.046875 -1.1875,-2.046875 -1.390625,0 -2.921875,2.8125 -2.921875,5.09375 0,0.9375 0.28125,2.046875 1.1875,2.046875 1.40625,0 2.921875,-2.859375 2.921875,-5.09375 z M 1.46875,-3.625 C 1.640625,-4.25 1.84375,-5.046875 2.25,-5.765625 2.515625,-6.25 2.875,-6.8125 3.328125,-6.8125 c 0.484375,0 0.546875,0.640625 0.546875,1.203125 0,0.5 -0.078125,1 -0.3125,1.984375 z m 2,0.328125 C 3.359375,-2.84375 3.15625,-2 2.765625,-1.28125 c -0.34375,0.6875 -0.71875,1.171875 -1.15625,1.171875 -0.328125,0 -0.53125,-0.296875 -0.53125,-1.21875 0,-0.421875 0.0625,-1 0.3125,-1.96875 z m 0,0"
               id="id-e838d22f-c4e6-405b-b5f0-b3353efa9f12" />
          </symbol>
          <symbol
             overflow="visible"
             id="id-39fbac4d-0c17-4531-9f45-bbdd0367e40b">
            <path
               style="stroke:none"
               d=""
               id="id-1a477132-5664-4b92-abfe-bdf12b671e5d" />
          </symbol>
          <symbol
             overflow="visible"
             id="id-c0534a53-48c9-4973-82f1-c7a52141122c">
            <path
               style="stroke:none"
               d="m 2.328125,-4.4375 c 0,-0.1875 0,-0.1875 -0.203125,-0.1875 -0.453125,0.4375 -1.078125,0.4375 -1.359375,0.4375 v 0.25 c 0.15625,0 0.625,0 1,-0.1875 v 3.546875 c 0,0.234375 0,0.328125 -0.6875,0.328125 H 0.8125 V 0 c 0.125,0 0.984375,-0.03125 1.234375,-0.03125 0.21875,0 1.09375,0.03125 1.25,0.03125 V -0.25 H 3.03125 c -0.703125,0 -0.703125,-0.09375 -0.703125,-0.328125 z m 0,0"
               id="id-1b85e90f-11ed-40d6-b556-58ecfe06c65a" />
          </symbol>
          <symbol
             overflow="visible"
             id="id-3f58d4e2-94b9-4067-82bd-accd2429723b">
            <path
               style="stroke:none"
               d="M 3.515625,-1.265625 H 3.28125 c -0.015625,0.15625 -0.09375,0.5625 -0.1875,0.625 C 3.046875,-0.59375 2.515625,-0.59375 2.40625,-0.59375 H 1.125 c 0.734375,-0.640625 0.984375,-0.84375 1.390625,-1.171875 0.515625,-0.40625 1,-0.84375 1,-1.5 0,-0.84375 -0.734375,-1.359375 -1.625,-1.359375 -0.859375,0 -1.453125,0.609375 -1.453125,1.25 0,0.34375 0.296875,0.390625 0.375,0.390625 0.15625,0 0.359375,-0.125 0.359375,-0.375 0,-0.125 -0.046875,-0.375 -0.40625,-0.375 C 0.984375,-4.21875 1.453125,-4.375 1.78125,-4.375 c 0.703125,0 1.0625,0.546875 1.0625,1.109375 0,0.609375 -0.4375,1.078125 -0.65625,1.328125 L 0.515625,-0.265625 C 0.4375,-0.203125 0.4375,-0.1875 0.4375,0 h 2.875 z m 0,0"
               id="id-18db4c3b-1f9e-4ad1-ac9c-fca17f7435df" />
          </symbol>
          <symbol
             overflow="visible"
             id="id-dd790428-516b-4d17-8467-4796072cf7ef">
            <path
               style="stroke:none"
               d=""
               id="id-4c885308-0227-4923-905e-88ddb55a1ff8" />
          </symbol>
          <symbol
             overflow="visible"
             id="id-b8d6bb33-db7e-4abc-b0c7-3014749c9f32">
            <path
               style="stroke:none"
               d="m 3.484375,-4.921875 c 0.046875,-0.09375 0.046875,-0.109375 0.046875,-0.125 0,-0.109375 -0.09375,-0.171875 -0.171875,-0.171875 -0.109375,0 -0.140625,0.078125 -0.1875,0.171875 L 0.578125,1.4375 C 0.53125,1.53125 0.53125,1.546875 0.53125,1.5625 c 0,0.109375 0.09375,0.171875 0.171875,0.171875 0.125,0 0.15625,-0.078125 0.1875,-0.171875 z m 0,0"
               id="id-3209ba5a-0e62-457f-bfe7-ddee009f0441" />
          </symbol>
        </g>
      </defs>
      <g
         id="id-0909688f-82f1-493e-97c7-9c35bea0601a"
         transform="translate(-149.134,-127.734)">
        <g
           style="fill:#000000;fill-opacity:1"
           id="id-e98a9314-a920-45ff-ae2c-1f415e23947c">
          <g
             transform="translate(148.712,134.765)"
             id="g3014">
            <path
               style="stroke:none"
               d="m 4.53125,-4.984375 c 0,-0.65625 -0.171875,-2.046875 -1.1875,-2.046875 -1.390625,0 -2.921875,2.8125 -2.921875,5.09375 0,0.9375 0.28125,2.046875 1.1875,2.046875 1.40625,0 2.921875,-2.859375 2.921875,-5.09375 z M 1.46875,-3.625 C 1.640625,-4.25 1.84375,-5.046875 2.25,-5.765625 2.515625,-6.25 2.875,-6.8125 3.328125,-6.8125 c 0.484375,0 0.546875,0.640625 0.546875,1.203125 0,0.5 -0.078125,1 -0.3125,1.984375 z m 2,0.328125 C 3.359375,-2.84375 3.15625,-2 2.765625,-1.28125 c -0.34375,0.6875 -0.71875,1.171875 -1.15625,1.171875 -0.328125,0 -0.53125,-0.296875 -0.53125,-1.21875 0,-0.421875 0.0625,-1 0.3125,-1.96875 z m 0,0"
               id="id-0f48b706-5033-4e2d-ba26-ee1335afb80c" />
          </g>
        </g>
        <g
           style="fill:#000000;fill-opacity:1"
           id="id-3dc39387-2f61-45a8-91b3-f6ff99ecc211">
          <g
             transform="translate(153.389,136.563)"
             id="g3018">
            <path
               style="stroke:none"
               d="m 2.328125,-4.4375 c 0,-0.1875 0,-0.1875 -0.203125,-0.1875 -0.453125,0.4375 -1.078125,0.4375 -1.359375,0.4375 v 0.25 c 0.15625,0 0.625,0 1,-0.1875 v 3.546875 c 0,0.234375 0,0.328125 -0.6875,0.328125 H 0.8125 V 0 c 0.125,0 0.984375,-0.03125 1.234375,-0.03125 0.21875,0 1.09375,0.03125 1.25,0.03125 V -0.25 H 3.03125 c -0.703125,0 -0.703125,-0.09375 -0.703125,-0.328125 z m 0,0"
               id="id-a9f2a697-27d9-4348-9d08-83f0dfb77229" />
          </g>
        </g>
        <g
           style="fill:#000000;fill-opacity:1"
           id="id-8456b738-00bf-4c40-9f5f-d4bdc5dcc3af">
          <g
             transform="translate(157.36,136.563)"
             id="g3022">
            <path
               style="stroke:none"
               d="m 3.484375,-4.921875 c 0.046875,-0.09375 0.046875,-0.109375 0.046875,-0.125 0,-0.109375 -0.09375,-0.171875 -0.171875,-0.171875 -0.109375,0 -0.140625,0.078125 -0.1875,0.171875 L 0.578125,1.4375 C 0.53125,1.53125 0.53125,1.546875 0.53125,1.5625 c 0,0.109375 0.09375,0.171875 0.171875,0.171875 0.125,0 0.15625,-0.078125 0.1875,-0.171875 z m 0,0"
               id="id-f51d07bc-6f40-4968-9e0f-5f6a25620ec3" />
          </g>
        </g>
        <g
           style="fill:#000000;fill-opacity:1"
           id="id-0242fabd-e883-4e12-9dd8-ede1d10821a4">
          <g
             transform="translate(161.442,136.563)"
             id="g3026">
            <path
               style="stroke:none"
               d="M 3.515625,-1.265625 H 3.28125 c -0.015625,0.15625 -0.09375,0.5625 -0.1875,0.625 C 3.046875,-0.59375 2.515625,-0.59375 2.40625,-0.59375 H 1.125 c 0.734375,-0.640625 0.984375,-0.84375 1.390625,-1.171875 0.515625,-0.40625 1,-0.84375 1,-1.5 0,-0.84375 -0.734375,-1.359375 -1.625,-1.359375 -0.859375,0 -1.453125,0.609375 -1.453125,1.25 0,0.34375 0.296875,0.390625 0.375,0.390625 0.15625,0 0.359375,-0.125 0.359375,-0.375 0,-0.125 -0.046875,-0.375 -0.40625,-0.375 C 0.984375,-4.21875 1.453125,-4.375 1.78125,-4.375 c 0.703125,0 1.0625,0.546875 1.0625,1.109375 0,0.609375 -0.4375,1.078125 -0.65625,1.328125 L 0.515625,-0.265625 C 0.4375,-0.203125 0.4375,-0.1875 0.4375,0 h 2.875 z m 0,0"
               id="id-55fcaccc-0051-4b20-a7fe-af7ae1679e3a" />
          </g>
        </g>
      </g>
    </g>
    <g
       transform="matrix(0.55679191,0,0,0.55679191,154.24878,7.0377536)"
       ns4:version="1.3.0"
       ns4:texconverter="pdflatex"
       ns4:pdfconverter="inkscape"
       ns4:text="$\\theta_{3/2}$"
       ns4:preamble="/home/ivo/.config/inkscape/extensions/textext/default_packages.tex"
       ns4:scale="1.2211830669712966"
       ns4:alignment="middle center"
       ns4:jacobian_sqrt="0.430807"
       id="g3122">
      <defs
         id="id-35c620fb-8fb9-41fb-a90d-3818588a0c19">
        <g
           id="id-6579124d-bec0-4b55-906d-42e3da964893">
          <symbol
             overflow="visible"
             id="id-275d7121-2fbd-40d0-874f-bd658984323f">
            <path
               style="stroke:none"
               d=""
               id="id-ca34b3e9-7fa1-4a69-ad1a-f925ab5e8697" />
          </symbol>
          <symbol
             overflow="visible"
             id="id-27e14c38-85d8-4cca-9f91-9f4bddc31bae">
            <path
               style="stroke:none"
               d="m 4.53125,-4.984375 c 0,-0.65625 -0.171875,-2.046875 -1.1875,-2.046875 -1.390625,0 -2.921875,2.8125 -2.921875,5.09375 0,0.9375 0.28125,2.046875 1.1875,2.046875 1.40625,0 2.921875,-2.859375 2.921875,-5.09375 z M 1.46875,-3.625 C 1.640625,-4.25 1.84375,-5.046875 2.25,-5.765625 2.515625,-6.25 2.875,-6.8125 3.328125,-6.8125 c 0.484375,0 0.546875,0.640625 0.546875,1.203125 0,0.5 -0.078125,1 -0.3125,1.984375 z m 2,0.328125 C 3.359375,-2.84375 3.15625,-2 2.765625,-1.28125 c -0.34375,0.6875 -0.71875,1.171875 -1.15625,1.171875 -0.328125,0 -0.53125,-0.296875 -0.53125,-1.21875 0,-0.421875 0.0625,-1 0.3125,-1.96875 z m 0,0"
               id="id-3617baef-9ef9-4ec1-806c-aa3c0dc1765d" />
          </symbol>
          <symbol
             overflow="visible"
             id="id-aeafd8e1-16cd-4695-b3b7-2d297a81dda6">
            <path
               style="stroke:none"
               d=""
               id="id-ee93193f-1870-4e52-bb39-dbb07ab801ed" />
          </symbol>
          <symbol
             overflow="visible"
             id="id-0ad2adf5-f282-4143-9c2e-04f1820095f2">
            <path
               style="stroke:none"
               d="m 1.90625,-2.328125 c 0.546875,0 0.9375,0.375 0.9375,1.125 0,0.859375 -0.515625,1.125 -0.90625,1.125 -0.28125,0 -0.90625,-0.078125 -1.1875,-0.5 0.328125,0 0.40625,-0.234375 0.40625,-0.390625 0,-0.21875 -0.171875,-0.375 -0.390625,-0.375 -0.1875,0 -0.390625,0.125 -0.390625,0.40625 0,0.65625 0.71875,1.078125 1.5625,1.078125 0.96875,0 1.640625,-0.65625 1.640625,-1.34375 0,-0.546875 -0.4375,-1.09375 -1.203125,-1.25 0.71875,-0.265625 0.984375,-0.78125 0.984375,-1.21875 0,-0.546875 -0.625,-0.953125 -1.40625,-0.953125 -0.765625,0 -1.359375,0.375 -1.359375,0.9375 0,0.234375 0.15625,0.359375 0.359375,0.359375 0.21875,0 0.359375,-0.15625 0.359375,-0.34375 0,-0.203125 -0.140625,-0.359375 -0.359375,-0.375 0.25,-0.296875 0.71875,-0.375 0.984375,-0.375 0.3125,0 0.75,0.15625 0.75,0.75 0,0.296875 -0.09375,0.625 -0.28125,0.828125 -0.21875,0.265625 -0.421875,0.28125 -0.765625,0.3125 -0.171875,0.015625 -0.1875,0.015625 -0.21875,0.015625 -0.015625,0 -0.078125,0.015625 -0.078125,0.09375 0,0.09375 0.0625,0.09375 0.1875,0.09375 z m 0,0"
               id="id-01eb31fb-0f12-4898-916a-0e1e35cba38e" />
          </symbol>
          <symbol
             overflow="visible"
             id="id-6e7da70b-5eba-4308-b117-835fda206b8b">
            <path
               style="stroke:none"
               d="M 3.515625,-1.265625 H 3.28125 c -0.015625,0.15625 -0.09375,0.5625 -0.1875,0.625 C 3.046875,-0.59375 2.515625,-0.59375 2.40625,-0.59375 H 1.125 c 0.734375,-0.640625 0.984375,-0.84375 1.390625,-1.171875 0.515625,-0.40625 1,-0.84375 1,-1.5 0,-0.84375 -0.734375,-1.359375 -1.625,-1.359375 -0.859375,0 -1.453125,0.609375 -1.453125,1.25 0,0.34375 0.296875,0.390625 0.375,0.390625 0.15625,0 0.359375,-0.125 0.359375,-0.375 0,-0.125 -0.046875,-0.375 -0.40625,-0.375 C 0.984375,-4.21875 1.453125,-4.375 1.78125,-4.375 c 0.703125,0 1.0625,0.546875 1.0625,1.109375 0,0.609375 -0.4375,1.078125 -0.65625,1.328125 L 0.515625,-0.265625 C 0.4375,-0.203125 0.4375,-0.1875 0.4375,0 h 2.875 z m 0,0"
               id="id-1ff4e89e-2686-4122-aebc-49d3f51d1bd4" />
          </symbol>
          <symbol
             overflow="visible"
             id="id-e2a56b53-490a-4133-b3e7-70406207921b">
            <path
               style="stroke:none"
               d=""
               id="id-9a08541b-6028-4cfa-be57-cb9694ee062e" />
          </symbol>
          <symbol
             overflow="visible"
             id="id-123704ff-d948-4b05-b422-3be19433f6cd">
            <path
               style="stroke:none"
               d="m 3.484375,-4.921875 c 0.046875,-0.09375 0.046875,-0.109375 0.046875,-0.125 0,-0.109375 -0.09375,-0.171875 -0.171875,-0.171875 -0.109375,0 -0.140625,0.078125 -0.1875,0.171875 L 0.578125,1.4375 C 0.53125,1.53125 0.53125,1.546875 0.53125,1.5625 c 0,0.109375 0.09375,0.171875 0.171875,0.171875 0.125,0 0.15625,-0.078125 0.1875,-0.171875 z m 0,0"
               id="id-d3a2c0ed-58bb-4aab-9e22-e099c6f576c5" />
          </symbol>
        </g>
      </defs>
      <g
         id="id-9edb3049-2119-4378-8ef9-9d55df704aef"
         transform="translate(-149.134,-127.734)">
        <g
           style="fill:#000000;fill-opacity:1"
           id="id-299978d1-2db2-4ca0-b948-9874cb7d1ad0">
          <g
             transform="translate(148.712,134.765)"
             id="g3405">
            <path
               style="stroke:none"
               d="m 4.53125,-4.984375 c 0,-0.65625 -0.171875,-2.046875 -1.1875,-2.046875 -1.390625,0 -2.921875,2.8125 -2.921875,5.09375 0,0.9375 0.28125,2.046875 1.1875,2.046875 1.40625,0 2.921875,-2.859375 2.921875,-5.09375 z M 1.46875,-3.625 C 1.640625,-4.25 1.84375,-5.046875 2.25,-5.765625 2.515625,-6.25 2.875,-6.8125 3.328125,-6.8125 c 0.484375,0 0.546875,0.640625 0.546875,1.203125 0,0.5 -0.078125,1 -0.3125,1.984375 z m 2,0.328125 C 3.359375,-2.84375 3.15625,-2 2.765625,-1.28125 c -0.34375,0.6875 -0.71875,1.171875 -1.15625,1.171875 -0.328125,0 -0.53125,-0.296875 -0.53125,-1.21875 0,-0.421875 0.0625,-1 0.3125,-1.96875 z m 0,0"
               id="id-f9d60079-a585-4ab6-b2cd-a018afa8217f" />
          </g>
        </g>
        <g
           style="fill:#000000;fill-opacity:1"
           id="id-8eacdc3f-2e3b-4d5a-b6eb-4a9423c4c68f">
          <g
             transform="translate(153.389,136.563)"
             id="g3409">
            <path
               style="stroke:none"
               d="m 1.90625,-2.328125 c 0.546875,0 0.9375,0.375 0.9375,1.125 0,0.859375 -0.515625,1.125 -0.90625,1.125 -0.28125,0 -0.90625,-0.078125 -1.1875,-0.5 0.328125,0 0.40625,-0.234375 0.40625,-0.390625 0,-0.21875 -0.171875,-0.375 -0.390625,-0.375 -0.1875,0 -0.390625,0.125 -0.390625,0.40625 0,0.65625 0.71875,1.078125 1.5625,1.078125 0.96875,0 1.640625,-0.65625 1.640625,-1.34375 0,-0.546875 -0.4375,-1.09375 -1.203125,-1.25 0.71875,-0.265625 0.984375,-0.78125 0.984375,-1.21875 0,-0.546875 -0.625,-0.953125 -1.40625,-0.953125 -0.765625,0 -1.359375,0.375 -1.359375,0.9375 0,0.234375 0.15625,0.359375 0.359375,0.359375 0.21875,0 0.359375,-0.15625 0.359375,-0.34375 0,-0.203125 -0.140625,-0.359375 -0.359375,-0.375 0.25,-0.296875 0.71875,-0.375 0.984375,-0.375 0.3125,0 0.75,0.15625 0.75,0.75 0,0.296875 -0.09375,0.625 -0.28125,0.828125 -0.21875,0.265625 -0.421875,0.28125 -0.765625,0.3125 -0.171875,0.015625 -0.1875,0.015625 -0.21875,0.015625 -0.015625,0 -0.078125,0.015625 -0.078125,0.09375 0,0.09375 0.0625,0.09375 0.1875,0.09375 z m 0,0"
               id="id-d814ea26-4fea-4e00-8b97-2ce908be0ea7" />
          </g>
        </g>
        <g
           style="fill:#000000;fill-opacity:1"
           id="id-cce044b7-3bd5-4ea7-a50b-ff3971b62e89">
          <g
             transform="translate(157.36,136.563)"
             id="g3413">
            <path
               style="stroke:none"
               d="m 3.484375,-4.921875 c 0.046875,-0.09375 0.046875,-0.109375 0.046875,-0.125 0,-0.109375 -0.09375,-0.171875 -0.171875,-0.171875 -0.109375,0 -0.140625,0.078125 -0.1875,0.171875 L 0.578125,1.4375 C 0.53125,1.53125 0.53125,1.546875 0.53125,1.5625 c 0,0.109375 0.09375,0.171875 0.171875,0.171875 0.125,0 0.15625,-0.078125 0.1875,-0.171875 z m 0,0"
               id="id-2f1e5619-f6ab-45d8-afc6-e2266b1b8ef2" />
          </g>
        </g>
        <g
           style="fill:#000000;fill-opacity:1"
           id="id-45ed2576-31bc-496c-86e1-be70d76240e2">
          <g
             transform="translate(161.442,136.563)"
             id="g3417">
            <path
               style="stroke:none"
               d="M 3.515625,-1.265625 H 3.28125 c -0.015625,0.15625 -0.09375,0.5625 -0.1875,0.625 C 3.046875,-0.59375 2.515625,-0.59375 2.40625,-0.59375 H 1.125 c 0.734375,-0.640625 0.984375,-0.84375 1.390625,-1.171875 0.515625,-0.40625 1,-0.84375 1,-1.5 0,-0.84375 -0.734375,-1.359375 -1.625,-1.359375 -0.859375,0 -1.453125,0.609375 -1.453125,1.25 0,0.34375 0.296875,0.390625 0.375,0.390625 0.15625,0 0.359375,-0.125 0.359375,-0.375 0,-0.125 -0.046875,-0.375 -0.40625,-0.375 C 0.984375,-4.21875 1.453125,-4.375 1.78125,-4.375 c 0.703125,0 1.0625,0.546875 1.0625,1.109375 0,0.609375 -0.4375,1.078125 -0.65625,1.328125 L 0.515625,-0.265625 C 0.4375,-0.203125 0.4375,-0.1875 0.4375,0 h 2.875 z m 0,0"
               id="id-a5a756a1-fba4-4450-9f54-a2c1d5264a80" />
          </g>
        </g>
      </g>
    </g>
    <g
       transform="matrix(0.55679191,0,0,0.55679191,178.18605,7.0376115)"
       ns4:version="1.3.0"
       ns4:texconverter="pdflatex"
       ns4:pdfconverter="inkscape"
       ns4:text="$\\theta_{5/2}$"
       ns4:preamble="/home/ivo/.config/inkscape/extensions/textext/default_packages.tex"
       ns4:scale="1.2211830669712966"
       ns4:alignment="middle center"
       ns4:jacobian_sqrt="0.430807"
       id="g3513">
      <defs
         id="id-035e0474-4ec6-4d58-a9da-6d39bc14b441">
        <g
           id="id-72396835-c333-44be-9c1f-ee54e74e2f38">
          <symbol
             overflow="visible"
             id="id-d03e143c-0998-4ff3-b0ff-fec42aa109c0">
            <path
               style="stroke:none"
               d=""
               id="id-29c4e504-a37e-44b2-8bdd-1f4c67b83f6d" />
          </symbol>
          <symbol
             overflow="visible"
             id="id-9c87e51e-9c0d-48da-8249-1dcc996ac557">
            <path
               style="stroke:none"
               d="m 4.53125,-4.984375 c 0,-0.65625 -0.171875,-2.046875 -1.1875,-2.046875 -1.390625,0 -2.921875,2.8125 -2.921875,5.09375 0,0.9375 0.28125,2.046875 1.1875,2.046875 1.40625,0 2.921875,-2.859375 2.921875,-5.09375 z M 1.46875,-3.625 C 1.640625,-4.25 1.84375,-5.046875 2.25,-5.765625 2.515625,-6.25 2.875,-6.8125 3.328125,-6.8125 c 0.484375,0 0.546875,0.640625 0.546875,1.203125 0,0.5 -0.078125,1 -0.3125,1.984375 z m 2,0.328125 C 3.359375,-2.84375 3.15625,-2 2.765625,-1.28125 c -0.34375,0.6875 -0.71875,1.171875 -1.15625,1.171875 -0.328125,0 -0.53125,-0.296875 -0.53125,-1.21875 0,-0.421875 0.0625,-1 0.3125,-1.96875 z m 0,0"
               id="id-7dc07d72-e989-4dda-90a9-46c026be5de8" />
          </symbol>
          <symbol
             overflow="visible"
             id="id-adfae465-bc9b-49a5-b2ae-66eec5a51edd">
            <path
               style="stroke:none"
               d=""
               id="id-1d84d78d-8526-4391-9601-9c82f44eede2" />
          </symbol>
          <symbol
             overflow="visible"
             id="id-23c8ced0-e8d2-4401-a927-41cce053857e">
            <path
               style="stroke:none"
               d="m 1.078125,-3.890625 c 0.359375,0.09375 0.5625,0.09375 0.671875,0.09375 0.921875,0 1.46875,-0.625 1.46875,-0.734375 0,-0.078125 -0.046875,-0.09375 -0.078125,-0.09375 -0.015625,0 -0.03125,0 -0.0625,0.015625 -0.171875,0.0625 -0.53125,0.203125 -1.046875,0.203125 -0.203125,0 -0.5625,-0.015625 -1.015625,-0.1875 C 0.9375,-4.625 0.921875,-4.625 0.921875,-4.625 c -0.09375,0 -0.09375,0.078125 -0.09375,0.1875 v 2.046875 c 0,0.125 0,0.203125 0.109375,0.203125 0.0625,0 0.078125,0 0.140625,-0.09375 0.296875,-0.375 0.734375,-0.4375 0.96875,-0.4375 0.421875,0 0.609375,0.328125 0.640625,0.390625 0.125,0.234375 0.171875,0.5 0.171875,0.90625 0,0.203125 0,0.609375 -0.21875,0.921875 -0.171875,0.25 -0.46875,0.421875 -0.8125,0.421875 -0.453125,0 -0.921875,-0.25 -1.09375,-0.71875 0.265625,0.015625 0.40625,-0.15625 0.40625,-0.34375 0,-0.296875 -0.265625,-0.34375 -0.359375,-0.34375 0,0 -0.34375,0 -0.34375,0.375 0,0.625 0.578125,1.25 1.40625,1.25 0.890625,0 1.671875,-0.65625 1.671875,-1.546875 0,-0.78125 -0.59375,-1.5 -1.453125,-1.5 -0.3125,0 -0.671875,0.0625 -0.984375,0.328125 z m 0,0"
               id="id-3706110f-551e-4ad6-b918-46919be7a6db" />
          </symbol>
          <symbol
             overflow="visible"
             id="id-4976d5ae-c39e-47bc-936c-3d9efaa121b9">
            <path
               style="stroke:none"
               d="M 3.515625,-1.265625 H 3.28125 c -0.015625,0.15625 -0.09375,0.5625 -0.1875,0.625 C 3.046875,-0.59375 2.515625,-0.59375 2.40625,-0.59375 H 1.125 c 0.734375,-0.640625 0.984375,-0.84375 1.390625,-1.171875 0.515625,-0.40625 1,-0.84375 1,-1.5 0,-0.84375 -0.734375,-1.359375 -1.625,-1.359375 -0.859375,0 -1.453125,0.609375 -1.453125,1.25 0,0.34375 0.296875,0.390625 0.375,0.390625 0.15625,0 0.359375,-0.125 0.359375,-0.375 0,-0.125 -0.046875,-0.375 -0.40625,-0.375 C 0.984375,-4.21875 1.453125,-4.375 1.78125,-4.375 c 0.703125,0 1.0625,0.546875 1.0625,1.109375 0,0.609375 -0.4375,1.078125 -0.65625,1.328125 L 0.515625,-0.265625 C 0.4375,-0.203125 0.4375,-0.1875 0.4375,0 h 2.875 z m 0,0"
               id="id-50d33970-f2af-4ba8-8e95-45f86475fc28" />
          </symbol>
          <symbol
             overflow="visible"
             id="id-40bb978a-e2ba-494d-b3fd-214ab8a9f95c">
            <path
               style="stroke:none"
               d=""
               id="id-ecf07aa6-d1a9-4499-b2a2-3097788e77ca" />
          </symbol>
          <symbol
             overflow="visible"
             id="id-1adb4222-dbe6-43b1-8633-81cbd27a0959">
            <path
               style="stroke:none"
               d="m 3.484375,-4.921875 c 0.046875,-0.09375 0.046875,-0.109375 0.046875,-0.125 0,-0.109375 -0.09375,-0.171875 -0.171875,-0.171875 -0.109375,0 -0.140625,0.078125 -0.1875,0.171875 L 0.578125,1.4375 C 0.53125,1.53125 0.53125,1.546875 0.53125,1.5625 c 0,0.109375 0.09375,0.171875 0.171875,0.171875 0.125,0 0.15625,-0.078125 0.1875,-0.171875 z m 0,0"
               id="id-e68d3909-234a-4675-a088-730bd6c47cc9" />
          </symbol>
        </g>
      </defs>
      <g
         id="id-a3f2d7e1-1a57-482e-97c7-20c81695a8e5"
         transform="translate(-149.134,-127.734)">
        <g
           style="fill:#000000;fill-opacity:1"
           id="id-8faf8b9c-48c7-4345-9194-f98ef71e3112">
          <g
             transform="translate(148.712,134.765)"
             id="g3826">
            <path
               style="stroke:none"
               d="m 4.53125,-4.984375 c 0,-0.65625 -0.171875,-2.046875 -1.1875,-2.046875 -1.390625,0 -2.921875,2.8125 -2.921875,5.09375 0,0.9375 0.28125,2.046875 1.1875,2.046875 1.40625,0 2.921875,-2.859375 2.921875,-5.09375 z M 1.46875,-3.625 C 1.640625,-4.25 1.84375,-5.046875 2.25,-5.765625 2.515625,-6.25 2.875,-6.8125 3.328125,-6.8125 c 0.484375,0 0.546875,0.640625 0.546875,1.203125 0,0.5 -0.078125,1 -0.3125,1.984375 z m 2,0.328125 C 3.359375,-2.84375 3.15625,-2 2.765625,-1.28125 c -0.34375,0.6875 -0.71875,1.171875 -1.15625,1.171875 -0.328125,0 -0.53125,-0.296875 -0.53125,-1.21875 0,-0.421875 0.0625,-1 0.3125,-1.96875 z m 0,0"
               id="id-9210245b-a37f-4ec1-a14c-1490a464fb62" />
          </g>
        </g>
        <g
           style="fill:#000000;fill-opacity:1"
           id="id-e4ae4a23-7c45-440d-bdd6-37ff79598b71">
          <g
             transform="translate(153.389,136.563)"
             id="g3830">
            <path
               style="stroke:none"
               d="m 1.078125,-3.890625 c 0.359375,0.09375 0.5625,0.09375 0.671875,0.09375 0.921875,0 1.46875,-0.625 1.46875,-0.734375 0,-0.078125 -0.046875,-0.09375 -0.078125,-0.09375 -0.015625,0 -0.03125,0 -0.0625,0.015625 -0.171875,0.0625 -0.53125,0.203125 -1.046875,0.203125 -0.203125,0 -0.5625,-0.015625 -1.015625,-0.1875 C 0.9375,-4.625 0.921875,-4.625 0.921875,-4.625 c -0.09375,0 -0.09375,0.078125 -0.09375,0.1875 v 2.046875 c 0,0.125 0,0.203125 0.109375,0.203125 0.0625,0 0.078125,0 0.140625,-0.09375 0.296875,-0.375 0.734375,-0.4375 0.96875,-0.4375 0.421875,0 0.609375,0.328125 0.640625,0.390625 0.125,0.234375 0.171875,0.5 0.171875,0.90625 0,0.203125 0,0.609375 -0.21875,0.921875 -0.171875,0.25 -0.46875,0.421875 -0.8125,0.421875 -0.453125,0 -0.921875,-0.25 -1.09375,-0.71875 0.265625,0.015625 0.40625,-0.15625 0.40625,-0.34375 0,-0.296875 -0.265625,-0.34375 -0.359375,-0.34375 0,0 -0.34375,0 -0.34375,0.375 0,0.625 0.578125,1.25 1.40625,1.25 0.890625,0 1.671875,-0.65625 1.671875,-1.546875 0,-0.78125 -0.59375,-1.5 -1.453125,-1.5 -0.3125,0 -0.671875,0.0625 -0.984375,0.328125 z m 0,0"
               id="id-14a87dc4-f1cb-4b52-8a6f-f0b601da4cb8" />
          </g>
        </g>
        <g
           style="fill:#000000;fill-opacity:1"
           id="id-00aa7958-d6e6-436e-80f6-6d5a21a8fa03">
          <g
             transform="translate(157.36,136.563)"
             id="g3834">
            <path
               style="stroke:none"
               d="m 3.484375,-4.921875 c 0.046875,-0.09375 0.046875,-0.109375 0.046875,-0.125 0,-0.109375 -0.09375,-0.171875 -0.171875,-0.171875 -0.109375,0 -0.140625,0.078125 -0.1875,0.171875 L 0.578125,1.4375 C 0.53125,1.53125 0.53125,1.546875 0.53125,1.5625 c 0,0.109375 0.09375,0.171875 0.171875,0.171875 0.125,0 0.15625,-0.078125 0.1875,-0.171875 z m 0,0"
               id="id-dfd62f8e-4c98-4473-a97f-7c85b9fb428f" />
          </g>
        </g>
        <g
           style="fill:#000000;fill-opacity:1"
           id="id-64a4ef1d-33b0-409b-bd8c-edf653edac0b">
          <g
             transform="translate(161.442,136.563)"
             id="g3838">
            <path
               style="stroke:none"
               d="M 3.515625,-1.265625 H 3.28125 c -0.015625,0.15625 -0.09375,0.5625 -0.1875,0.625 C 3.046875,-0.59375 2.515625,-0.59375 2.40625,-0.59375 H 1.125 c 0.734375,-0.640625 0.984375,-0.84375 1.390625,-1.171875 0.515625,-0.40625 1,-0.84375 1,-1.5 0,-0.84375 -0.734375,-1.359375 -1.625,-1.359375 -0.859375,0 -1.453125,0.609375 -1.453125,1.25 0,0.34375 0.296875,0.390625 0.375,0.390625 0.15625,0 0.359375,-0.125 0.359375,-0.375 0,-0.125 -0.046875,-0.375 -0.40625,-0.375 C 0.984375,-4.21875 1.453125,-4.375 1.78125,-4.375 c 0.703125,0 1.0625,0.546875 1.0625,1.109375 0,0.609375 -0.4375,1.078125 -0.65625,1.328125 L 0.515625,-0.265625 C 0.4375,-0.203125 0.4375,-0.1875 0.4375,0 h 2.875 z m 0,0"
               id="id-956fa02f-295e-4495-809b-e3d4239f08a6" />
          </g>
        </g>
      </g>
    </g>
    <path
       style="fill:none;stroke:#000000;stroke-width:0.213252;stroke-linecap:butt;stroke-linejoin:miter;stroke-miterlimit:4;stroke-dasharray:none;stroke-opacity:1"
       d="M 88.712627,15.039862 V 32.137756"
       id="path3876" />
    <path
       style="fill:none;stroke:#000000;stroke-width:0.213252;stroke-linecap:butt;stroke-linejoin:miter;stroke-miterlimit:4;stroke-dasharray:none;stroke-opacity:1"
       d="M 111.28186,15.039862 V 32.137756"
       id="path3878" />
    <path
       style="fill:none;stroke:#000000;stroke-width:0.213252;stroke-linecap:butt;stroke-linejoin:miter;stroke-miterlimit:4;stroke-dasharray:none;stroke-opacity:1"
       d="M 135.21903,15.039862 V 32.137756"
       id="path3880" />
    <path
       style="fill:none;stroke:#000000;stroke-width:0.213252;stroke-linecap:butt;stroke-linejoin:miter;stroke-miterlimit:4;stroke-dasharray:none;stroke-opacity:1"
       d="M 157.7884,15.039862 V 32.137756"
       id="path3882" />
    <path
       style="fill:none;stroke:#000000;stroke-width:0.213252;stroke-linecap:butt;stroke-linejoin:miter;stroke-miterlimit:4;stroke-dasharray:none;stroke-opacity:1"
       d="M 181.04168,15.039862 V 32.137756"
       id="path3884" />
  </g>
</svg>
