<?xml version="1.0" encoding="UTF-8" standalone="no"?>
<svg
   xmlns:ns1="http://www.iki.fi/pav/software/textext/"
   xmlns:dc="http://purl.org/dc/elements/1.1/"
   xmlns:cc="http://creativecommons.org/ns#"
   xmlns:rdf="http://www.w3.org/1999/02/22-rdf-syntax-ns#"
   xmlns:svg="http://www.w3.org/2000/svg"
   xmlns="http://www.w3.org/2000/svg"
   xmlns:sodipodi="http://sodipodi.sourceforge.net/DTD/sodipodi-0.dtd"
   xmlns:inkscape="http://www.inkscape.org/namespaces/inkscape"
   width="210mm"
   height="100mm"
   viewBox="0 0 210 100"
   version="1.1"
   id="svg8"
   sodipodi:docname="12e3.svg"
   inkscape:version="1.0.1 (3bc2e813f5, 2020-09-07, custom)">
  <defs
     id="defs2" />
  <sodipodi:namedview
     id="base"
     pagecolor="#ffffff"
     bordercolor="#666666"
     borderopacity="1.0"
     inkscape:pageopacity="0.0"
     inkscape:pageshadow="2"
     inkscape:zoom="1.4"
     inkscape:cx="398.19401"
     inkscape:cy="272.65766"
     inkscape:document-units="mm"
     inkscape:current-layer="layer1"
     inkscape:document-rotation="0"
     showgrid="false"
     inkscape:window-width="1920"
     inkscape:window-height="1042"
     inkscape:window-x="0"
     inkscape:window-y="0"
     inkscape:window-maximized="0"
     inkscape:snap-global="false">
    <inkscape:grid
       type="xygrid"
       id="grid833" />
  </sodipodi:namedview>
  <metadata
     id="metadata5">
    <rdf:RDF>
      <cc:Work
         rdf:about="">
        <dc:format>image/svg+xml</dc:format>
        <dc:type
           rdf:resource="http://purl.org/dc/dcmitype/StillImage" />
        <dc:title></dc:title>
      </cc:Work>
    </rdf:RDF>
  </metadata>
  <g
     inkscape:label="Livello 1"
     inkscape:groupmode="layer"
     id="layer1">
    <path
       style="fill:none;stroke:#000000;stroke-width:0.490584px;stroke-linecap:butt;stroke-linejoin:miter;stroke-opacity:0.49973"
       d="M 41.753027,57.774828 H 171.75796"
       id="path835" />
    <path
       style="fill:none;stroke:#000000;stroke-width:0.490584px;stroke-linecap:butt;stroke-linejoin:miter;stroke-opacity:1"
       d="m 73.128905,24.833188 29.585615,32.786455 12.84777,25.154642"
       id="path843"
       sodipodi:nodetypes="ccc" />
    <path
       style="fill:none;stroke:#000000;stroke-width:0.30594;stroke-linecap:butt;stroke-linejoin:miter;stroke-miterlimit:4;stroke-dasharray:1.22376, 1.22376;stroke-dashoffset:0;stroke-opacity:0.499373"
       d="M 102.69279,27.28583 V 78.797219"
       id="path845" />
    <g
       transform="matrix(0.61275364,0,0,0.61275364,75.038865,17.656018)"
       ns1:version="1.3.0"
       ns1:texconverter="pdflatex"
       ns1:pdfconverter="inkscape"
       ns1:text="$A$"
       ns1:preamble="/home/ivo/.config/inkscape/extensions/textext/default_packages.tex"
       ns1:scale="1.4102243770293006"
       ns1:alignment="middle center"
       ns1:jacobian_sqrt="0.497496"
       id="g867">
      <defs
         id="id-55ebbfed-57cc-456a-930c-8e75de68dddf">
        <g
           id="id-874a8172-baf4-4ecf-b776-134637bf0d4c">
          <symbol
             overflow="visible"
             id="id-f4187715-da6a-414d-9fce-6c5546658671">
            <path
               style="stroke:none;stroke-width:0"
               d=""
               id="id-d0c91899-5b4f-4158-b509-04c91a5cf120" />
          </symbol>
          <symbol
             overflow="visible"
             id="id-09addb87-ef29-41ac-b3c4-f392ea1d0ed4">
            <path
               style="stroke:none;stroke-width:0"
               d="M 1.78125,-1.140625 C 1.390625,-0.484375 1,-0.34375 0.5625,-0.3125 0.4375,-0.296875 0.34375,-0.296875 0.34375,-0.109375 0.34375,-0.046875 0.40625,0 0.484375,0 0.75,0 1.0625,-0.03125 1.328125,-0.03125 c 0.34375,0 0.6875,0.03125 1,0.03125 0.0625,0 0.1875,0 0.1875,-0.1875 0,-0.109375 -0.078125,-0.125 -0.15625,-0.125 -0.21875,-0.015625 -0.46875,-0.09375 -0.46875,-0.34375 0,-0.125 0.0625,-0.234375 0.140625,-0.375 l 0.765625,-1.265625 h 2.5 c 0.015625,0.203125 0.15625,1.5625 0.15625,1.65625 0,0.296875 -0.515625,0.328125 -0.71875,0.328125 C 4.59375,-0.3125 4.5,-0.3125 4.5,-0.109375 4.5,0 4.609375,0 4.640625,0 5.046875,0 5.46875,-0.03125 5.875,-0.03125 6.125,-0.03125 6.765625,0 7.015625,0 7.0625,0 7.1875,0 7.1875,-0.203125 7.1875,-0.3125 7.09375,-0.3125 6.953125,-0.3125 6.34375,-0.3125 6.34375,-0.375 6.3125,-0.671875 l -0.609375,-6.21875 c -0.015625,-0.203125 -0.015625,-0.25 -0.1875,-0.25 -0.15625,0 -0.203125,0.078125 -0.265625,0.171875 z M 2.984375,-2.609375 4.9375,-5.90625 5.265625,-2.609375 Z m 0,0"
               id="id-e6f73089-d38f-4a9b-af98-a93bc4c41538" />
          </symbol>
        </g>
      </defs>
      <g
         id="id-6dd178eb-5254-44b6-ae9c-e7e9123cb2fd"
         transform="translate(-149.056,-127.624)">
        <g
           style="fill:#000000;fill-opacity:1"
           id="id-6f87ecbd-f5ff-4d88-9bad-a734025105a1">
          <g
             transform="translate(148.712,134.765)"
             id="g863">
            <path
               style="stroke:none;stroke-width:0"
               d="M 1.78125,-1.140625 C 1.390625,-0.484375 1,-0.34375 0.5625,-0.3125 0.4375,-0.296875 0.34375,-0.296875 0.34375,-0.109375 0.34375,-0.046875 0.40625,0 0.484375,0 0.75,0 1.0625,-0.03125 1.328125,-0.03125 c 0.34375,0 0.6875,0.03125 1,0.03125 0.0625,0 0.1875,0 0.1875,-0.1875 0,-0.109375 -0.078125,-0.125 -0.15625,-0.125 -0.21875,-0.015625 -0.46875,-0.09375 -0.46875,-0.34375 0,-0.125 0.0625,-0.234375 0.140625,-0.375 l 0.765625,-1.265625 h 2.5 c 0.015625,0.203125 0.15625,1.5625 0.15625,1.65625 0,0.296875 -0.515625,0.328125 -0.71875,0.328125 C 4.59375,-0.3125 4.5,-0.3125 4.5,-0.109375 4.5,0 4.609375,0 4.640625,0 5.046875,0 5.46875,-0.03125 5.875,-0.03125 6.125,-0.03125 6.765625,0 7.015625,0 7.0625,0 7.1875,0 7.1875,-0.203125 7.1875,-0.3125 7.09375,-0.3125 6.953125,-0.3125 6.34375,-0.3125 6.34375,-0.375 6.3125,-0.671875 l -0.609375,-6.21875 c -0.015625,-0.203125 -0.015625,-0.25 -0.1875,-0.25 -0.15625,0 -0.203125,0.078125 -0.265625,0.171875 z M 2.984375,-2.609375 4.9375,-5.90625 5.265625,-2.609375 Z m 0,0"
               id="id-c15530ef-0914-4144-90b2-63426000f445" />
          </g>
        </g>
      </g>
    </g>
    <g
       transform="matrix(0.61275364,0,0,0.61275364,118.64058,83.446918)"
       ns1:version="1.3.0"
       ns1:texconverter="pdflatex"
       ns1:pdfconverter="inkscape"
       ns1:text="$B$"
       ns1:preamble="/home/ivo/.config/inkscape/extensions/textext/default_packages.tex"
       ns1:scale="1.4102243770293006"
       ns1:alignment="middle center"
       ns1:jacobian_sqrt="0.497496"
       id="g903">
      <defs
         id="id-16397e8c-819b-4a60-ba42-4a4521368697">
        <g
           id="id-f418c1b1-be38-4303-bf17-041b95091507">
          <symbol
             overflow="visible"
             id="id-e37d0aa8-6e66-4fc1-99e6-9a4c1149aa94">
            <path
               style="stroke:none"
               d=""
               id="id-9f1ab9d4-e5f6-4413-8af5-2ee15b89021a" />
          </symbol>
          <symbol
             overflow="visible"
             id="id-c2b6dbcf-e6c6-4415-8d84-d3f63e0f6526">
            <path
               style="stroke:none"
               d="M 1.59375,-0.78125 C 1.5,-0.390625 1.46875,-0.3125 0.6875,-0.3125 c -0.171875,0 -0.265625,0 -0.265625,0.203125 C 0.421875,0 0.515625,0 0.6875,0 H 4.25 C 5.828125,0 7,-1.171875 7,-2.15625 7,-2.875 6.421875,-3.453125 5.453125,-3.5625 6.484375,-3.75 7.53125,-4.484375 7.53125,-5.4375 c 0,-0.734375 -0.65625,-1.375 -1.84375,-1.375 H 2.328125 c -0.1875,0 -0.28125,0 -0.28125,0.203125 0,0.109375 0.09375,0.109375 0.28125,0.109375 0.015625,0 0.203125,0 0.375,0.015625 0.171875,0.03125 0.265625,0.03125 0.265625,0.171875 0,0.03125 -0.015625,0.0625 -0.03125,0.1875 z m 1.5,-2.875 0.625,-2.46875 C 3.8125,-6.46875 3.828125,-6.5 4.25,-6.5 h 1.296875 c 0.875,0 1.078125,0.59375 1.078125,1.03125 0,0.875 -0.859375,1.8125 -2.0625,1.8125 z m -0.4375,3.34375 c -0.140625,0 -0.15625,0 -0.21875,0 -0.109375,-0.015625 -0.140625,-0.03125 -0.140625,-0.109375 0,-0.03125 0,-0.046875 0.0625,-0.21875 l 0.6875,-2.78125 h 1.875 c 0.953125,0 1.15625,0.734375 1.15625,1.15625 C 6.078125,-1.28125 5.1875,-0.3125 4,-0.3125 Z m 0,0"
               id="id-0fd3ca81-be07-472a-aa5c-52146b9441bc" />
          </symbol>
        </g>
      </defs>
      <g
         id="id-789f9569-ec66-41c2-b298-ae412da64226"
         transform="translate(-149.134,-127.953)">
        <g
           style="fill:#000000;fill-opacity:1"
           id="id-e3d4fdaa-31b2-44dd-a335-f7b2d918aa1c">
          <g
             transform="translate(148.712,134.765)"
             id="g932">
            <path
               style="stroke:none"
               d="M 1.59375,-0.78125 C 1.5,-0.390625 1.46875,-0.3125 0.6875,-0.3125 c -0.171875,0 -0.265625,0 -0.265625,0.203125 C 0.421875,0 0.515625,0 0.6875,0 H 4.25 C 5.828125,0 7,-1.171875 7,-2.15625 7,-2.875 6.421875,-3.453125 5.453125,-3.5625 6.484375,-3.75 7.53125,-4.484375 7.53125,-5.4375 c 0,-0.734375 -0.65625,-1.375 -1.84375,-1.375 H 2.328125 c -0.1875,0 -0.28125,0 -0.28125,0.203125 0,0.109375 0.09375,0.109375 0.28125,0.109375 0.015625,0 0.203125,0 0.375,0.015625 0.171875,0.03125 0.265625,0.03125 0.265625,0.171875 0,0.03125 -0.015625,0.0625 -0.03125,0.1875 z m 1.5,-2.875 0.625,-2.46875 C 3.8125,-6.46875 3.828125,-6.5 4.25,-6.5 h 1.296875 c 0.875,0 1.078125,0.59375 1.078125,1.03125 0,0.875 -0.859375,1.8125 -2.0625,1.8125 z m -0.4375,3.34375 c -0.140625,0 -0.15625,0 -0.21875,0 -0.109375,-0.015625 -0.140625,-0.03125 -0.140625,-0.109375 0,-0.03125 0,-0.046875 0.0625,-0.21875 l 0.6875,-2.78125 h 1.875 c 0.953125,0 1.15625,0.734375 1.15625,1.15625 C 6.078125,-1.28125 5.1875,-0.3125 4,-0.3125 Z m 0,0"
               id="id-b75958a0-67b3-426a-966f-433355152bb4" />
          </g>
        </g>
      </g>
    </g>
    <g
       transform="matrix(0.61275364,0,0,0.61275364,96.446621,43.770548)"
       ns1:version="1.3.0"
       ns1:texconverter="pdflatex"
       ns1:pdfconverter="inkscape"
       ns1:text="$\\theta_1$"
       ns1:preamble="/home/ivo/.config/inkscape/extensions/textext/default_packages.tex"
       ns1:scale="1.4102243770293006"
       ns1:alignment="middle center"
       ns1:jacobian_sqrt="0.497496"
       id="g1050">
      <defs
         id="id-8b301e36-1819-43f6-9e71-fdc4d95fd42a">
        <g
           id="id-67a70aa9-4e0a-4641-bf65-b80a0b472433">
          <symbol
             overflow="visible"
             id="id-59c4d3a6-deaf-4124-9944-27643e8217aa">
            <path
               style="stroke:none"
               d=""
               id="id-b3fb0671-3219-4b7f-9ad4-cc0a6e9ae1da" />
          </symbol>
          <symbol
             overflow="visible"
             id="id-858eb22d-f484-4ac1-9702-0ad3a9a0e2e7">
            <path
               style="stroke:none"
               d="m 4.53125,-4.984375 c 0,-0.65625 -0.171875,-2.046875 -1.1875,-2.046875 -1.390625,0 -2.921875,2.8125 -2.921875,5.09375 0,0.9375 0.28125,2.046875 1.1875,2.046875 1.40625,0 2.921875,-2.859375 2.921875,-5.09375 z M 1.46875,-3.625 C 1.640625,-4.25 1.84375,-5.046875 2.25,-5.765625 2.515625,-6.25 2.875,-6.8125 3.328125,-6.8125 c 0.484375,0 0.546875,0.640625 0.546875,1.203125 0,0.5 -0.078125,1 -0.3125,1.984375 z m 2,0.328125 C 3.359375,-2.84375 3.15625,-2 2.765625,-1.28125 c -0.34375,0.6875 -0.71875,1.171875 -1.15625,1.171875 -0.328125,0 -0.53125,-0.296875 -0.53125,-1.21875 0,-0.421875 0.0625,-1 0.3125,-1.96875 z m 0,0"
               id="id-83b3376d-d0c5-40de-9a72-726a5ca469e7" />
          </symbol>
          <symbol
             overflow="visible"
             id="id-8323bfb6-6763-4ed5-aa9f-459506d9fd3d">
            <path
               style="stroke:none"
               d=""
               id="id-71be8980-efb2-4059-8ba6-ed37b1145564" />
          </symbol>
          <symbol
             overflow="visible"
             id="id-b4e0ce4b-bcde-452d-9deb-38aaa6d45ff4">
            <path
               style="stroke:none"
               d="m 2.328125,-4.4375 c 0,-0.1875 0,-0.1875 -0.203125,-0.1875 -0.453125,0.4375 -1.078125,0.4375 -1.359375,0.4375 v 0.25 c 0.15625,0 0.625,0 1,-0.1875 v 3.546875 c 0,0.234375 0,0.328125 -0.6875,0.328125 H 0.8125 V 0 c 0.125,0 0.984375,-0.03125 1.234375,-0.03125 0.21875,0 1.09375,0.03125 1.25,0.03125 V -0.25 H 3.03125 c -0.703125,0 -0.703125,-0.09375 -0.703125,-0.328125 z m 0,0"
               id="id-64ddb74b-3e25-4306-a78b-d64c5455e27a" />
          </symbol>
        </g>
      </defs>
      <g
         id="id-4ac5dba8-21f9-47bd-90e6-4c225ab23a62"
         transform="translate(-149.134,-127.734)">
        <g
           style="fill:#000000;fill-opacity:1"
           id="id-589460ac-7b1f-47c0-a9cc-77ea11bb408b">
          <g
             transform="translate(148.712,134.765)"
             id="g1105">
            <path
               style="stroke:none"
               d="m 4.53125,-4.984375 c 0,-0.65625 -0.171875,-2.046875 -1.1875,-2.046875 -1.390625,0 -2.921875,2.8125 -2.921875,5.09375 0,0.9375 0.28125,2.046875 1.1875,2.046875 1.40625,0 2.921875,-2.859375 2.921875,-5.09375 z M 1.46875,-3.625 C 1.640625,-4.25 1.84375,-5.046875 2.25,-5.765625 2.515625,-6.25 2.875,-6.8125 3.328125,-6.8125 c 0.484375,0 0.546875,0.640625 0.546875,1.203125 0,0.5 -0.078125,1 -0.3125,1.984375 z m 2,0.328125 C 3.359375,-2.84375 3.15625,-2 2.765625,-1.28125 c -0.34375,0.6875 -0.71875,1.171875 -1.15625,1.171875 -0.328125,0 -0.53125,-0.296875 -0.53125,-1.21875 0,-0.421875 0.0625,-1 0.3125,-1.96875 z m 0,0"
               id="id-172e08e4-d35c-4496-9931-24f10d859804" />
          </g>
        </g>
        <g
           style="fill:#000000;fill-opacity:1"
           id="id-622b1a60-e7b9-40d1-95c5-c1bfd00f8546">
          <g
             transform="translate(153.389,136.259)"
             id="g1109">
            <path
               style="stroke:none"
               d="m 2.328125,-4.4375 c 0,-0.1875 0,-0.1875 -0.203125,-0.1875 -0.453125,0.4375 -1.078125,0.4375 -1.359375,0.4375 v 0.25 c 0.15625,0 0.625,0 1,-0.1875 v 3.546875 c 0,0.234375 0,0.328125 -0.6875,0.328125 H 0.8125 V 0 c 0.125,0 0.984375,-0.03125 1.234375,-0.03125 0.21875,0 1.09375,0.03125 1.25,0.03125 V -0.25 H 3.03125 c -0.703125,0 -0.703125,-0.09375 -0.703125,-0.328125 z m 0,0"
               id="id-71905052-8364-44a2-9f8b-fa0693c9e6f2" />
          </g>
        </g>
      </g>
    </g>
    <g
       transform="matrix(0.61275364,0,0,0.61275364,104.66181,72.526262)"
       ns1:version="1.3.0"
       ns1:texconverter="pdflatex"
       ns1:pdfconverter="inkscape"
       ns1:text="$\\theta_2$"
       ns1:preamble="/home/ivo/.config/inkscape/extensions/textext/default_packages.tex"
       ns1:scale="1.4102243770293006"
       ns1:alignment="middle center"
       ns1:jacobian_sqrt="0.497496"
       id="g1169">
      <defs
         id="id-85d51cd3-843f-44d3-a03e-2f4f304550bd">
        <g
           id="id-a267f16e-2c37-4aab-99eb-058734b7cc01">
          <symbol
             overflow="visible"
             id="id-9f7542c8-6511-434e-9f2e-8176aa444a7e">
            <path
               style="stroke:none"
               d=""
               id="id-93a91752-ac69-4214-8835-ee40b9054437" />
          </symbol>
          <symbol
             overflow="visible"
             id="id-5de0f4ad-b12a-4474-9894-c56d861ba409">
            <path
               style="stroke:none"
               d="m 4.53125,-4.984375 c 0,-0.65625 -0.171875,-2.046875 -1.1875,-2.046875 -1.390625,0 -2.921875,2.8125 -2.921875,5.09375 0,0.9375 0.28125,2.046875 1.1875,2.046875 1.40625,0 2.921875,-2.859375 2.921875,-5.09375 z M 1.46875,-3.625 C 1.640625,-4.25 1.84375,-5.046875 2.25,-5.765625 2.515625,-6.25 2.875,-6.8125 3.328125,-6.8125 c 0.484375,0 0.546875,0.640625 0.546875,1.203125 0,0.5 -0.078125,1 -0.3125,1.984375 z m 2,0.328125 C 3.359375,-2.84375 3.15625,-2 2.765625,-1.28125 c -0.34375,0.6875 -0.71875,1.171875 -1.15625,1.171875 -0.328125,0 -0.53125,-0.296875 -0.53125,-1.21875 0,-0.421875 0.0625,-1 0.3125,-1.96875 z m 0,0"
               id="id-364b6c50-08bc-4e8a-8277-61c0c597d898" />
          </symbol>
          <symbol
             overflow="visible"
             id="id-73848842-ce78-41bb-ac0f-3625d23023e7">
            <path
               style="stroke:none"
               d=""
               id="id-f21ddada-359c-474b-b752-34ac004268fd" />
          </symbol>
          <symbol
             overflow="visible"
             id="id-bd78af49-408b-4a8e-8563-777acc6d1ee5">
            <path
               style="stroke:none"
               d="M 3.515625,-1.265625 H 3.28125 c -0.015625,0.15625 -0.09375,0.5625 -0.1875,0.625 C 3.046875,-0.59375 2.515625,-0.59375 2.40625,-0.59375 H 1.125 c 0.734375,-0.640625 0.984375,-0.84375 1.390625,-1.171875 0.515625,-0.40625 1,-0.84375 1,-1.5 0,-0.84375 -0.734375,-1.359375 -1.625,-1.359375 -0.859375,0 -1.453125,0.609375 -1.453125,1.25 0,0.34375 0.296875,0.390625 0.375,0.390625 0.15625,0 0.359375,-0.125 0.359375,-0.375 0,-0.125 -0.046875,-0.375 -0.40625,-0.375 C 0.984375,-4.21875 1.453125,-4.375 1.78125,-4.375 c 0.703125,0 1.0625,0.546875 1.0625,1.109375 0,0.609375 -0.4375,1.078125 -0.65625,1.328125 L 0.515625,-0.265625 C 0.4375,-0.203125 0.4375,-0.1875 0.4375,0 h 2.875 z m 0,0"
               id="id-41efc1f5-e3e4-4a9e-91ac-d0e9d5842dba" />
          </symbol>
        </g>
      </defs>
      <g
         id="id-e7484676-7f2c-406b-b7d1-92767a2e7149"
         transform="translate(-149.134,-127.734)">
        <g
           style="fill:#000000;fill-opacity:1"
           id="id-0251d57f-4c7f-41b1-8a69-84fa799b94b9">
          <g
             transform="translate(148.712,134.765)"
             id="g1242">
            <path
               style="stroke:none"
               d="m 4.53125,-4.984375 c 0,-0.65625 -0.171875,-2.046875 -1.1875,-2.046875 -1.390625,0 -2.921875,2.8125 -2.921875,5.09375 0,0.9375 0.28125,2.046875 1.1875,2.046875 1.40625,0 2.921875,-2.859375 2.921875,-5.09375 z M 1.46875,-3.625 C 1.640625,-4.25 1.84375,-5.046875 2.25,-5.765625 2.515625,-6.25 2.875,-6.8125 3.328125,-6.8125 c 0.484375,0 0.546875,0.640625 0.546875,1.203125 0,0.5 -0.078125,1 -0.3125,1.984375 z m 2,0.328125 C 3.359375,-2.84375 3.15625,-2 2.765625,-1.28125 c -0.34375,0.6875 -0.71875,1.171875 -1.15625,1.171875 -0.328125,0 -0.53125,-0.296875 -0.53125,-1.21875 0,-0.421875 0.0625,-1 0.3125,-1.96875 z m 0,0"
               id="id-059aad73-0c26-4f58-9a4b-64cf56f9872e" />
          </g>
        </g>
        <g
           style="fill:#000000;fill-opacity:1"
           id="id-dfefece8-49a8-43a9-ad6d-fc482c348edc">
          <g
             transform="translate(153.389,136.259)"
             id="g1246">
            <path
               style="stroke:none"
               d="M 3.515625,-1.265625 H 3.28125 c -0.015625,0.15625 -0.09375,0.5625 -0.1875,0.625 C 3.046875,-0.59375 2.515625,-0.59375 2.40625,-0.59375 H 1.125 c 0.734375,-0.640625 0.984375,-0.84375 1.390625,-1.171875 0.515625,-0.40625 1,-0.84375 1,-1.5 0,-0.84375 -0.734375,-1.359375 -1.625,-1.359375 -0.859375,0 -1.453125,0.609375 -1.453125,1.25 0,0.34375 0.296875,0.390625 0.375,0.390625 0.15625,0 0.359375,-0.125 0.359375,-0.375 0,-0.125 -0.046875,-0.375 -0.40625,-0.375 C 0.984375,-4.21875 1.453125,-4.375 1.78125,-4.375 c 0.703125,0 1.0625,0.546875 1.0625,1.109375 0,0.609375 -0.4375,1.078125 -0.65625,1.328125 L 0.515625,-0.265625 C 0.4375,-0.203125 0.4375,-0.1875 0.4375,0 h 2.875 z m 0,0"
               id="id-2e8d6b7c-c159-40df-821f-c73e42eed9c6" />
          </g>
        </g>
      </g>
    </g>
    <circle
       style="fill:#000000;fill-opacity:1;stroke:none;stroke-width:0.179495;stroke-miterlimit:4;stroke-dasharray:none"
       id="circle1272"
       cx="102.74335"
       cy="57.731422"
       r="0.78737843" />
    <g
       transform="matrix(0.61275364,0,0,0.61275364,165.90213,52.368933)"
       ns1:version="1.3.0"
       ns1:texconverter="pdflatex"
       ns1:pdfconverter="inkscape"
       ns1:text="$r$"
       ns1:preamble="/home/ivo/.config/inkscape/extensions/textext/default_packages.tex"
       ns1:scale="1.4102243770293006"
       ns1:alignment="middle center"
       ns1:jacobian_sqrt="0.497496"
       id="g1294">
      <defs
         id="id-d4bbb24d-f2c8-491c-9e5d-a2fdd9446750">
        <g
           id="id-71ae77fd-4b83-420a-a57c-779a837f7441">
          <symbol
             overflow="visible"
             id="id-ef1c8a7a-09c7-41a9-906d-516d56224513">
            <path
               style="stroke:none"
               d=""
               id="id-96d4fb19-d8d3-4039-98cd-bf7850e830b8" />
          </symbol>
          <symbol
             overflow="visible"
             id="id-6e0d62dd-1e77-4979-98c9-4672b66f99af">
            <path
               style="stroke:none"
               d="m 0.875,-0.59375 c -0.03125,0.15625 -0.09375,0.390625 -0.09375,0.4375 0,0.171875 0.140625,0.265625 0.296875,0.265625 0.125,0 0.296875,-0.078125 0.375,-0.28125 C 1.46875,-0.203125 1.796875,-1.5625 1.84375,-1.75 c 0.078125,-0.328125 0.265625,-1.015625 0.3125,-1.296875 0.046875,-0.125 0.328125,-0.59375 0.5625,-0.8125 0.078125,-0.0625 0.375,-0.328125 0.796875,-0.328125 0.265625,0 0.40625,0.125 0.421875,0.125 -0.296875,0.046875 -0.515625,0.28125 -0.515625,0.546875 0,0.15625 0.109375,0.34375 0.375,0.34375 0.265625,0 0.546875,-0.234375 0.546875,-0.59375 0,-0.34375 -0.3125,-0.640625 -0.828125,-0.640625 C 2.875,-4.40625 2.4375,-3.921875 2.25,-3.640625 2.15625,-4.09375 1.796875,-4.40625 1.328125,-4.40625 0.875,-4.40625 0.6875,-4.015625 0.59375,-3.84375 0.421875,-3.5 0.296875,-2.90625 0.296875,-2.875 c 0,0.109375 0.09375,0.109375 0.109375,0.109375 0.109375,0 0.109375,-0.015625 0.171875,-0.234375 0.171875,-0.703125 0.375,-1.1875 0.734375,-1.1875 0.15625,0 0.296875,0.078125 0.296875,0.453125 0,0.21875 -0.03125,0.328125 -0.15625,0.84375 z m 0,0"
               id="id-1f4505b6-30a7-48e6-8ece-aa4846b8fa15" />
          </symbol>
        </g>
      </defs>
      <g
         id="id-25dbe761-1aa1-4c1d-92f0-f1a57d0db0bf"
         transform="translate(-149.009,-130.359)">
        <g
           style="fill:#000000;fill-opacity:1"
           id="id-4989c559-6b20-412b-b698-2a02ad73255e">
          <g
             transform="translate(148.712,134.765)"
             id="g1382">
            <path
               style="stroke:none"
               d="m 0.875,-0.59375 c -0.03125,0.15625 -0.09375,0.390625 -0.09375,0.4375 0,0.171875 0.140625,0.265625 0.296875,0.265625 0.125,0 0.296875,-0.078125 0.375,-0.28125 C 1.46875,-0.203125 1.796875,-1.5625 1.84375,-1.75 c 0.078125,-0.328125 0.265625,-1.015625 0.3125,-1.296875 0.046875,-0.125 0.328125,-0.59375 0.5625,-0.8125 0.078125,-0.0625 0.375,-0.328125 0.796875,-0.328125 0.265625,0 0.40625,0.125 0.421875,0.125 -0.296875,0.046875 -0.515625,0.28125 -0.515625,0.546875 0,0.15625 0.109375,0.34375 0.375,0.34375 0.265625,0 0.546875,-0.234375 0.546875,-0.59375 0,-0.34375 -0.3125,-0.640625 -0.828125,-0.640625 C 2.875,-4.40625 2.4375,-3.921875 2.25,-3.640625 2.15625,-4.09375 1.796875,-4.40625 1.328125,-4.40625 0.875,-4.40625 0.6875,-4.015625 0.59375,-3.84375 0.421875,-3.5 0.296875,-2.90625 0.296875,-2.875 c 0,0.109375 0.09375,0.109375 0.109375,0.109375 0.109375,0 0.109375,-0.015625 0.171875,-0.234375 0.171875,-0.703125 0.375,-1.1875 0.734375,-1.1875 0.15625,0 0.296875,0.078125 0.296875,0.453125 0,0.21875 -0.03125,0.328125 -0.15625,0.84375 z m 0,0"
               id="id-242422e1-405d-447e-8099-2b9e2a5c67d7" />
          </g>
        </g>
      </g>
    </g>
    <circle
       style="fill:#ff0000;fill-opacity:1;stroke:none;stroke-width:0.402356"
       id="circle841"
       cx="115.74409"
       cy="82.780693"
       r="1.2264616" />
    <circle
       style="fill:#ff0000;fill-opacity:1;stroke:none;stroke-width:0.402356"
       id="path839"
       cx="73.021309"
       cy="24.468311"
       r="1.2264616" />
    <g
       transform="matrix(0.612754,0,0,0.612754,48.597425,50.386179)"
       ns1:version="1.3.0"
       ns1:texconverter="pdflatex"
       ns1:pdfconverter="inkscape"
       ns1:text="$v_1$"
       ns1:preamble="/home/ivo/.config/inkscape/extensions/textext/default_packages.tex"
       ns1:scale="1.736938830144235"
       ns1:alignment="middle center"
       ns1:inkscapeversion="1.0.1"
       ns1:jacobian_sqrt="0.612754"
       id="g937">
      <defs
         id="id-0600d397-6826-4cac-b814-0ba31df46678">
        <g
           id="id-12075c8b-bb7c-4deb-922f-991eccc5aa50">
          <symbol
             overflow="visible"
             id="id-d46186b8-0521-4a1e-a1ce-7cad0960dd58">
            <path
               style="stroke:none"
               d=""
               id="id-d6aed49f-dcb0-4a4b-b700-a1b17f4d9b46" />
          </symbol>
          <symbol
             overflow="visible"
             id="id-60c07594-331f-454d-9ac9-a718b4c4e166">
            <path
               style="stroke:none"
               d="m 4.671875,-3.703125 c 0,-0.546875 -0.265625,-0.703125 -0.4375,-0.703125 -0.25,0 -0.5,0.265625 -0.5,0.484375 0,0.125 0.046875,0.1875 0.15625,0.296875 0.21875,0.203125 0.34375,0.453125 0.34375,0.8125 0,0.421875 -0.609375,2.703125 -1.765625,2.703125 -0.515625,0 -0.75,-0.34375 -0.75,-0.875 0,-0.546875 0.28125,-1.28125 0.578125,-2.109375 0.078125,-0.171875 0.125,-0.3125 0.125,-0.5 0,-0.4375 -0.3125,-0.8125 -0.8125,-0.8125 -0.9375,0 -1.3125,1.453125 -1.3125,1.53125 0,0.109375 0.09375,0.109375 0.109375,0.109375 0.109375,0 0.109375,-0.03125 0.15625,-0.1875 0.296875,-1 0.71875,-1.234375 1.015625,-1.234375 0.078125,0 0.25,0 0.25,0.3125 0,0.25 -0.109375,0.53125 -0.171875,0.703125 -0.4375,1.15625 -0.5625,1.609375 -0.5625,2.046875 0,1.078125 0.875,1.234375 1.328125,1.234375 1.671875,0 2.25,-3.296875 2.25,-3.8125 z m 0,0"
               id="id-d13bab45-578f-4642-aada-81b96833ccf6" />
          </symbol>
          <symbol
             overflow="visible"
             id="id-488421a4-dda3-45b6-a2c1-d51d21a96d2b">
            <path
               style="stroke:none"
               d=""
               id="id-8221f144-cafa-4d67-98d4-317011cd7727" />
          </symbol>
          <symbol
             overflow="visible"
             id="id-62fdc6b5-9bdd-4404-b321-9ba1d60fbd56">
            <path
               style="stroke:none"
               d="m 2.328125,-4.4375 c 0,-0.1875 0,-0.1875 -0.203125,-0.1875 -0.453125,0.4375 -1.078125,0.4375 -1.359375,0.4375 v 0.25 c 0.15625,0 0.625,0 1,-0.1875 v 3.546875 c 0,0.234375 0,0.328125 -0.6875,0.328125 H 0.8125 V 0 c 0.125,0 0.984375,-0.03125 1.234375,-0.03125 0.21875,0 1.09375,0.03125 1.25,0.03125 V -0.25 H 3.03125 c -0.703125,0 -0.703125,-0.09375 -0.703125,-0.328125 z m 0,0"
               id="id-e74197af-a611-47d0-8b3f-4b2d0e656c4f" />
          </symbol>
        </g>
      </defs>
      <g
         id="id-27ea58f2-e16a-40a4-afd1-dfb0e0ea6348"
         transform="translate(-149.009,-130.359)">
        <g
           style="fill:#000000;fill-opacity:1"
           id="id-f36308b6-9a6b-4b6e-be7f-753cfffb5ef1">
          <g
             transform="translate(148.712,134.765)"
             id="g1040">
            <path
               style="stroke:none"
               d="m 4.671875,-3.703125 c 0,-0.546875 -0.265625,-0.703125 -0.4375,-0.703125 -0.25,0 -0.5,0.265625 -0.5,0.484375 0,0.125 0.046875,0.1875 0.15625,0.296875 0.21875,0.203125 0.34375,0.453125 0.34375,0.8125 0,0.421875 -0.609375,2.703125 -1.765625,2.703125 -0.515625,0 -0.75,-0.34375 -0.75,-0.875 0,-0.546875 0.28125,-1.28125 0.578125,-2.109375 0.078125,-0.171875 0.125,-0.3125 0.125,-0.5 0,-0.4375 -0.3125,-0.8125 -0.8125,-0.8125 -0.9375,0 -1.3125,1.453125 -1.3125,1.53125 0,0.109375 0.09375,0.109375 0.109375,0.109375 0.109375,0 0.109375,-0.03125 0.15625,-0.1875 0.296875,-1 0.71875,-1.234375 1.015625,-1.234375 0.078125,0 0.25,0 0.25,0.3125 0,0.25 -0.109375,0.53125 -0.171875,0.703125 -0.4375,1.15625 -0.5625,1.609375 -0.5625,2.046875 0,1.078125 0.875,1.234375 1.328125,1.234375 1.671875,0 2.25,-3.296875 2.25,-3.8125 z m 0,0"
               id="id-6157beb4-8cc1-4183-9e08-eb6158a8a608" />
          </g>
        </g>
        <g
           style="fill:#000000;fill-opacity:1"
           id="id-f29cef6c-1989-44cd-b13c-a67ccd381298">
          <g
             transform="translate(153.541,136.259)"
             id="g1044">
            <path
               style="stroke:none"
               d="m 2.328125,-4.4375 c 0,-0.1875 0,-0.1875 -0.203125,-0.1875 -0.453125,0.4375 -1.078125,0.4375 -1.359375,0.4375 v 0.25 c 0.15625,0 0.625,0 1,-0.1875 v 3.546875 c 0,0.234375 0,0.328125 -0.6875,0.328125 H 0.8125 V 0 c 0.125,0 0.984375,-0.03125 1.234375,-0.03125 0.21875,0 1.09375,0.03125 1.25,0.03125 V -0.25 H 3.03125 c -0.703125,0 -0.703125,-0.09375 -0.703125,-0.328125 z m 0,0"
               id="id-49110261-e16c-475c-b50b-345bb1fc4a7e" />
          </g>
        </g>
      </g>
    </g>
    <g
       transform="matrix(0.612754,0,0,0.612754,48.449129,62.724017)"
       ns1:version="1.3.0"
       ns1:texconverter="pdflatex"
       ns1:pdfconverter="inkscape"
       ns1:text="$v_2$"
       ns1:preamble="/home/ivo/.config/inkscape/extensions/textext/default_packages.tex"
       ns1:scale="1.736938830144235"
       ns1:alignment="middle center"
       ns1:inkscapeversion="1.0.1"
       ns1:jacobian_sqrt="0.612754"
       id="g1104">
      <defs
         id="id-a90a20ef-f6b0-4edf-b2ac-de433520933f">
        <g
           id="id-0e2cfcb7-a1ed-4973-b7a5-052e154ea971">
          <symbol
             overflow="visible"
             id="id-15258f4e-139a-4d43-ac79-3b288c4d33f3">
            <path
               style="stroke:none"
               d=""
               id="id-7b5365b0-55d5-4e08-b947-c0abe146d61b" />
          </symbol>
          <symbol
             overflow="visible"
             id="id-8081e758-49b2-485e-9ee2-d25bcffba4f5">
            <path
               style="stroke:none"
               d="m 4.671875,-3.703125 c 0,-0.546875 -0.265625,-0.703125 -0.4375,-0.703125 -0.25,0 -0.5,0.265625 -0.5,0.484375 0,0.125 0.046875,0.1875 0.15625,0.296875 0.21875,0.203125 0.34375,0.453125 0.34375,0.8125 0,0.421875 -0.609375,2.703125 -1.765625,2.703125 -0.515625,0 -0.75,-0.34375 -0.75,-0.875 0,-0.546875 0.28125,-1.28125 0.578125,-2.109375 0.078125,-0.171875 0.125,-0.3125 0.125,-0.5 0,-0.4375 -0.3125,-0.8125 -0.8125,-0.8125 -0.9375,0 -1.3125,1.453125 -1.3125,1.53125 0,0.109375 0.09375,0.109375 0.109375,0.109375 0.109375,0 0.109375,-0.03125 0.15625,-0.1875 0.296875,-1 0.71875,-1.234375 1.015625,-1.234375 0.078125,0 0.25,0 0.25,0.3125 0,0.25 -0.109375,0.53125 -0.171875,0.703125 -0.4375,1.15625 -0.5625,1.609375 -0.5625,2.046875 0,1.078125 0.875,1.234375 1.328125,1.234375 1.671875,0 2.25,-3.296875 2.25,-3.8125 z m 0,0"
               id="id-2b451921-1964-491d-bce8-ba2c0d743f36" />
          </symbol>
          <symbol
             overflow="visible"
             id="id-b9abb51f-1b73-45b0-89d5-d05df1a766dc">
            <path
               style="stroke:none"
               d=""
               id="id-f8b8df46-b420-484d-9cb0-27ed9f2dfd9a" />
          </symbol>
          <symbol
             overflow="visible"
             id="id-e22ba4cb-e2b6-4eeb-9cdc-54baf3650e4b">
            <path
               style="stroke:none"
               d="M 3.515625,-1.265625 H 3.28125 c -0.015625,0.15625 -0.09375,0.5625 -0.1875,0.625 C 3.046875,-0.59375 2.515625,-0.59375 2.40625,-0.59375 H 1.125 c 0.734375,-0.640625 0.984375,-0.84375 1.390625,-1.171875 0.515625,-0.40625 1,-0.84375 1,-1.5 0,-0.84375 -0.734375,-1.359375 -1.625,-1.359375 -0.859375,0 -1.453125,0.609375 -1.453125,1.25 0,0.34375 0.296875,0.390625 0.375,0.390625 0.15625,0 0.359375,-0.125 0.359375,-0.375 0,-0.125 -0.046875,-0.375 -0.40625,-0.375 C 0.984375,-4.21875 1.453125,-4.375 1.78125,-4.375 c 0.703125,0 1.0625,0.546875 1.0625,1.109375 0,0.609375 -0.4375,1.078125 -0.65625,1.328125 L 0.515625,-0.265625 C 0.4375,-0.203125 0.4375,-0.1875 0.4375,0 h 2.875 z m 0,0"
               id="id-3faddf85-ddfd-4452-aed7-93f756c62a51" />
          </symbol>
        </g>
      </defs>
      <g
         id="id-560b453e-a812-40b4-a93b-2679c4ccbbeb"
         transform="translate(-149.009,-130.359)">
        <g
           style="fill:#000000;fill-opacity:1"
           id="id-c67e57f9-edcc-4b3f-a3a2-2f64913ac45a">
          <g
             transform="translate(148.712,134.765)"
             id="g1225">
            <path
               style="stroke:none"
               d="m 4.671875,-3.703125 c 0,-0.546875 -0.265625,-0.703125 -0.4375,-0.703125 -0.25,0 -0.5,0.265625 -0.5,0.484375 0,0.125 0.046875,0.1875 0.15625,0.296875 0.21875,0.203125 0.34375,0.453125 0.34375,0.8125 0,0.421875 -0.609375,2.703125 -1.765625,2.703125 -0.515625,0 -0.75,-0.34375 -0.75,-0.875 0,-0.546875 0.28125,-1.28125 0.578125,-2.109375 0.078125,-0.171875 0.125,-0.3125 0.125,-0.5 0,-0.4375 -0.3125,-0.8125 -0.8125,-0.8125 -0.9375,0 -1.3125,1.453125 -1.3125,1.53125 0,0.109375 0.09375,0.109375 0.109375,0.109375 0.109375,0 0.109375,-0.03125 0.15625,-0.1875 0.296875,-1 0.71875,-1.234375 1.015625,-1.234375 0.078125,0 0.25,0 0.25,0.3125 0,0.25 -0.109375,0.53125 -0.171875,0.703125 -0.4375,1.15625 -0.5625,1.609375 -0.5625,2.046875 0,1.078125 0.875,1.234375 1.328125,1.234375 1.671875,0 2.25,-3.296875 2.25,-3.8125 z m 0,0"
               id="id-7643114c-d35b-4bf6-a380-74f2af902bf2" />
          </g>
        </g>
        <g
           style="fill:#000000;fill-opacity:1"
           id="id-5cfd96ce-4a94-4cc5-8ea8-811bd40e0979">
          <g
             transform="translate(153.541,136.259)"
             id="g1229">
            <path
               style="stroke:none"
               d="M 3.515625,-1.265625 H 3.28125 c -0.015625,0.15625 -0.09375,0.5625 -0.1875,0.625 C 3.046875,-0.59375 2.515625,-0.59375 2.40625,-0.59375 H 1.125 c 0.734375,-0.640625 0.984375,-0.84375 1.390625,-1.171875 0.515625,-0.40625 1,-0.84375 1,-1.5 0,-0.84375 -0.734375,-1.359375 -1.625,-1.359375 -0.859375,0 -1.453125,0.609375 -1.453125,1.25 0,0.34375 0.296875,0.390625 0.375,0.390625 0.15625,0 0.359375,-0.125 0.359375,-0.375 0,-0.125 -0.046875,-0.375 -0.40625,-0.375 C 0.984375,-4.21875 1.453125,-4.375 1.78125,-4.375 c 0.703125,0 1.0625,0.546875 1.0625,1.109375 0,0.609375 -0.4375,1.078125 -0.65625,1.328125 L 0.515625,-0.265625 C 0.4375,-0.203125 0.4375,-0.1875 0.4375,0 h 2.875 z m 0,0"
               id="id-1612592c-ee0b-4b52-9877-05edcf8b1281" />
          </g>
        </g>
      </g>
    </g>
  </g>
</svg>
